<?xml version="1.0" standalone="no"?>
<!DOCTYPE svg PUBLIC "-//W3C//DTD SVG 20010904//EN"
 "http://www.w3.org/TR/2001/REC-SVG-20010904/DTD/svg10.dtd">
<svg version="1.0" xmlns="http://www.w3.org/2000/svg"
 width="1660.000000pt" height="908.000000pt" viewBox="0 0 1660.000000 908.000000"
 preserveAspectRatio="xMidYMid meet">
<metadata>
Created by potrace 1.16, written by Peter Selinger 2001-2019
</metadata>
<g transform="translate(0.000000,908.000000) scale(0.100000,-0.100000)"
fill="#000000" stroke="none">
<path d="M10620 8770 c-30 -4 438 -7 1040 -7 602 0 1068 3 1035 7 -74 10
-1999 9 -2075 0z"/>
<path d="M6890 8750 c-36 -5 -76 -13 -90 -19 l-25 -12 25 8 c14 4 522 10 1130
13 608 3 1069 8 1026 13 -104 9 -1982 7 -2066 -3z"/>
<path d="M10515 8750 c-13 -5 -14 -9 -5 -9 8 0 24 4 35 9 13 5 14 9 5 9 -8 0
-24 -4 -35 -9z"/>
<path d="M12775 8750 c11 -5 27 -9 35 -9 9 0 8 4 -5 9 -11 5 -27 9 -35 9 -9 0
-8 -4 5 -9z"/>
<path d="M9055 8730 c11 -5 27 -9 35 -9 9 0 8 4 -5 9 -11 5 -27 9 -35 9 -9 0
-8 -4 5 -9z"/>
<path d="M10448 8724 c-39 -21 -35 -28 5 -8 37 19 44 24 31 24 -5 -1 -21 -8
-36 -16z"/>
<path d="M12884 8709 c32 -19 82 -54 110 -78 50 -44 51 -44 14 -5 -37 39 -123
97 -163 109 -11 4 6 -8 39 -26z"/>
<path d="M6694 8685 c-105 -62 -210 -200 -229 -300 -3 -16 5 -1 19 34 47 122
122 209 234 269 31 17 52 32 46 32 -5 0 -37 -16 -70 -35z"/>
<path d="M9165 8688 c33 -18 89 -62 125 -98 40 -40 53 -50 33 -25 -17 22 -42
50 -55 62 -28 27 -138 93 -152 93 -6 0 16 -15 49 -32z"/>
<path d="M10359 8668 c-23 -18 -58 -53 -78 -78 -29 -37 -25 -34 24 16 33 33
71 68 85 77 14 9 22 16 18 16 -3 1 -25 -14 -49 -31z"/>
<path d="M13075 8524 c19 -32 35 -62 35 -68 0 -5 3 -7 6 -3 7 7 -43 102 -63
118 -7 6 3 -15 22 -47z"/>
<path d="M10213 8484 c-14 -30 -23 -57 -21 -59 2 -2 16 23 30 55 14 33 24 60
22 60 -3 0 -17 -25 -31 -56z"/>
<path d="M9372 8475 c12 -24 23 -43 26 -41 4 5 -36 86 -43 86 -3 0 5 -20 17
-45z"/>
<path d="M10602 8078 l3 -383 100 -12 c370 -44 637 -36 1036 31 334 56 505 75
747 83 l192 6 0 329 0 328 -1040 0 -1040 0 2 -382z m607 308 c13 -9 15 -73 1
-81 -11 -7 8 -55 22 -55 4 0 8 12 8 28 0 43 26 72 65 72 18 0 41 -7 49 -16 21
-20 21 -64 1 -64 -8 0 -15 -6 -16 -12 0 -10 -2 -10 -6 0 -2 6 -16 12 -30 12
-15 0 -23 -5 -20 -12 2 -8 19 -13 40 -12 30 1 37 -3 37 -17 0 -33 -96 -39
-106 -6 -7 23 -24 22 -24 -3 0 -33 -29 -23 -47 17 -24 50 -43 54 -43 9 0 -67
-40 -58 -41 10 -3 113 1 142 19 146 19 4 73 -5 91 -16z m271 -57 c0 -18 -4
-20 -25 -15 -30 8 -34 -10 -5 -19 29 -9 43 -40 30 -65 -21 -40 -90 -37 -98 5
-3 14 1 16 21 11 34 -8 43 8 12 22 -18 8 -25 19 -25 40 0 37 6 42 52 42 32 0
38 -3 38 -21z m151 -14 c16 -28 16 -33 2 -65 -9 -19 -16 -38 -15 -41 1 -3 -20
-5 -45 -4 -32 1 -50 7 -59 20 -19 25 -18 75 2 103 13 19 24 22 57 20 33 -2 44
-8 58 -33z m69 -14 c0 -28 5 -53 10 -56 19 -12 40 23 40 64 0 30 4 41 15 41
12 0 15 -15 15 -74 l0 -75 -47 3 c-49 3 -89 35 -78 63 3 8 5 30 5 49 0 27 4
34 20 34 17 0 20 -7 20 -49z m200 32 c0 -15 2 -15 19 1 28 26 85 18 89 -11 4
-25 -1 -28 -28 -13 -13 7 -21 6 -30 -5 -16 -19 -9 -59 12 -63 11 -2 17 2 15
10 -2 7 -2 10 0 6 3 -5 11 -8 19 -8 19 0 18 -36 -2 -44 -52 -20 -94 11 -94 70
0 34 -20 50 -39 31 -6 -6 -11 -33 -11 -60 0 -41 -3 -48 -17 -45 -15 3 -19 16
-21 76 l-3 72 46 0 c35 0 45 -4 45 -17z m238 5 c7 -7 12 -25 12 -40 0 -26 -3
-28 -41 -28 -28 0 -39 -4 -36 -12 2 -8 19 -13 41 -12 29 1 36 -2 36 -17 0 -26
-62 -37 -94 -16 -38 25 -40 106 -3 129 19 12 72 9 85 -4z m-68 -299 c0 -30 2
-31 34 -27 19 2 34 1 34 -2 -1 -3 4 -18 11 -34 26 -63 -11 -115 -81 -114 l-38
0 0 104 c0 97 1 104 20 104 16 0 20 -7 20 -31z m-850 -70 c23 -64 29 -94 22
-101 -13 -13 -42 7 -42 28 0 9 -12 14 -34 14 -28 0 -35 -4 -40 -26 -5 -17 -12
-24 -24 -22 -23 5 -19 42 12 112 9 22 19 50 22 63 4 15 14 23 29 23 19 0 27
-13 55 -91z m450 49 c21 -84 25 -86 40 -19 11 54 16 62 34 59 16 -2 25 -16 37
-63 17 -61 21 -60 33 6 7 39 19 59 37 59 23 0 23 -2 4 -71 -30 -105 -45 -138
-61 -132 -17 6 -44 65 -45 97 0 11 -8 -4 -18 -34 -18 -55 -39 -72 -58 -48 -10
13 -53 157 -53 177 0 6 9 11 20 11 14 0 22 -11 30 -42z m-126 -54 c8 -24 11
-44 5 -44 -5 0 -9 -6 -9 -14 0 -23 -54 -58 -68 -44 -9 9 -12 5 -12 -15 0 -20
-5 -27 -20 -27 -20 0 -22 10 -22 135 0 51 1 54 32 53 17 -1 33 1 36 4 15 16
44 -8 58 -48z m-156 13 c8 -16 11 -40 7 -58 -7 -33 -47 -64 -70 -55 -11 4 -15
-1 -15 -19 0 -18 -5 -25 -20 -25 -21 0 -21 1 -21 110 0 28 0 56 0 64 1 11 14
14 53 13 47 -2 54 -5 66 -30z m600 21 c7 -7 12 -25 12 -40 0 -24 -4 -28 -27
-29 -16 -1 -34 -1 -42 0 -7 2 -11 -4 -9 -11 3 -8 19 -13 42 -12 46 2 50 -26 7
-43 -24 -9 -35 -7 -59 7 -37 23 -47 59 -28 105 13 31 19 35 53 35 22 0 44 -5
51 -12z"/>
<path d="M11140 8340 c0 -23 25 -27 33 -6 7 16 -1 26 -20 26 -7 0 -13 -9 -13
-20z"/>
<path d="M11295 8310 c-3 -5 3 -10 15 -10 12 0 18 5 15 10 -3 6 -10 10 -15 10
-5 0 -12 -4 -15 -10z"/>
<path d="M11552 8308 c-17 -17 -15 -55 4 -62 20 -8 44 10 44 33 0 17 -18 41
-30 41 -3 0 -11 -5 -18 -12z"/>
<path d="M12075 8310 c-3 -5 3 -10 15 -10 12 0 18 5 15 10 -3 6 -10 10 -15 10
-5 0 -12 -4 -15 -10z"/>
<path d="M12082 7967 c-12 -14 -12 -51 1 -63 8 -9 37 15 37 30 0 7 -6 20 -13
30 -11 15 -15 16 -25 3z"/>
<path d="M11161 7993 c-1 -6 -4 -18 -7 -27 -4 -11 -1 -16 10 -16 18 0 19 6 6
35 -5 11 -9 15 -9 8z"/>
<path d="M11472 7968 c-15 -15 -16 -55 0 -64 6 -4 17 1 25 11 16 23 16 27 0
48 -10 14 -15 15 -25 5z"/>
<path d="M11323 7965 c-28 -31 -7 -79 22 -55 18 15 19 31 3 52 -11 14 -15 15
-25 3z"/>
<path d="M11925 7970 c-3 -5 3 -10 15 -10 12 0 18 5 15 10 -3 6 -10 10 -15 10
-5 0 -12 -4 -15 -10z"/>
<path d="M6880 8057 l0 -384 95 -11 c348 -43 664 -37 980 19 311 54 516 79
763 91 l242 12 0 328 0 328 -1040 0 -1040 0 0 -383z m608 301 c15 -15 16 -64
2 -73 -6 -4 -4 -17 5 -35 8 -16 15 -36 15 -45 0 -29 -25 -14 -42 25 -22 54
-48 54 -48 0 0 -29 -4 -40 -15 -40 -12 0 -15 17 -15 90 l0 90 43 0 c24 0 48
-5 55 -12z m146 -44 c9 -8 16 -26 16 -40 0 -21 -4 -24 -40 -24 -28 0 -40 -4
-40 -14 0 -19 26 -27 57 -20 19 5 24 3 21 -7 -7 -20 -81 -24 -97 -5 -19 22
-16 84 5 107 21 23 57 25 78 3z m124 -1 c2 -8 -6 -13 -22 -13 -34 0 -33 -15 1
-32 53 -25 37 -78 -23 -78 -24 0 -34 5 -34 15 0 11 8 15 26 13 38 -4 39 14 4
34 -34 19 -40 51 -12 67 22 14 54 10 60 -6z m140 1 c27 -19 30 -78 5 -106 -20
-22 -76 -24 -93 -3 -21 25 -15 87 10 107 27 22 49 23 78 2z m82 -32 c0 -59 16
-79 42 -55 12 11 18 30 18 60 0 23 5 43 10 43 6 0 10 -29 10 -68 l0 -69 -45
-1 c-35 -2 -46 2 -55 17 -11 22 -14 104 -3 114 16 16 23 4 23 -41z m207 31 c2
-6 -6 -13 -19 -15 -20 -3 -23 -9 -26 -55 -2 -38 -7 -53 -18 -53 -11 0 -14 15
-14 69 l0 68 37 -1 c20 -1 38 -6 40 -13z m101 5 c20 -20 14 -28 -17 -22 -23 5
-32 2 -40 -14 -20 -38 8 -78 42 -60 22 11 32 5 24 -17 -8 -20 -70 -20 -87 0
-18 21 -15 83 6 106 19 21 54 25 72 7z m132 -8 c11 -11 20 -29 20 -40 0 -17
-7 -20 -45 -20 -25 0 -45 -4 -45 -9 0 -18 30 -33 55 -27 18 5 25 2 25 -9 0
-21 -68 -20 -92 2 -39 35 -10 123 42 123 11 0 29 -9 40 -20z m-72 -297 c2 -24
7 -30 22 -26 48 13 84 -50 58 -104 -12 -24 -19 -28 -61 -29 l-47 -2 0 100 c0
75 3 99 13 96 6 -3 13 -18 15 -35z m-862 -30 c9 -27 23 -63 31 -82 17 -43 16
-51 -2 -51 -9 0 -20 11 -25 25 -7 19 -17 25 -40 25 -23 0 -33 -6 -40 -25 -9
-25 -46 -37 -38 -12 55 154 62 167 79 167 12 0 23 -15 35 -47z m474 -5 c20
-83 26 -85 40 -18 12 54 31 83 46 67 3 -2 13 -33 23 -68 l18 -64 16 57 c10 31
17 61 17 67 0 12 30 16 30 4 0 -5 -10 -45 -22 -91 -19 -71 -26 -82 -42 -80
-16 2 -24 17 -35 63 -15 64 -20 62 -41 -22 -8 -31 -16 -43 -29 -43 -14 0 -23
17 -39 79 -26 92 -26 101 -8 101 9 0 19 -20 26 -52z m-298 -6 c17 -17 16 -85
-1 -106 -7 -9 -26 -16 -42 -16 -24 0 -29 -4 -29 -25 0 -16 -6 -25 -15 -25 -12
0 -15 17 -15 94 l0 94 45 -2 c24 -1 50 -7 57 -14z m150 0 c17 -17 16 -85 -1
-106 -7 -9 -26 -16 -42 -16 -24 0 -29 -4 -29 -25 0 -16 -6 -25 -15 -25 -12 0
-15 17 -15 94 l0 94 45 -2 c24 -1 50 -7 57 -14z m452 2 c9 -8 16 -26 16 -40 0
-21 -4 -24 -40 -24 -28 0 -40 -4 -40 -14 0 -19 26 -27 57 -20 19 5 24 3 21 -7
-7 -20 -81 -24 -97 -5 -19 22 -16 84 5 107 21 23 57 25 78 3z"/>
<path d="M7420 8319 c0 -24 3 -30 16 -25 9 3 20 6 25 6 16 0 10 38 -7 44 -28
11 -34 6 -34 -25z"/>
<path d="M7577 8293 c-14 -13 -6 -23 18 -23 16 0 25 6 25 15 0 15 -31 21 -43
8z"/>
<path d="M7831 8279 c-10 -29 -4 -56 16 -63 24 -10 44 14 41 48 -4 40 -43 50
-57 15z"/>
<path d="M8357 8294 c-15 -15 -6 -24 24 -24 20 0 29 4 27 13 -5 14 -40 21 -51
11z"/>
<path d="M8354 7946 c-3 -8 -4 -25 -2 -38 4 -31 44 -37 53 -9 12 40 -36 85
-51 47z"/>
<path d="M7436 7958 c-9 -35 -8 -38 14 -38 11 0 20 3 20 8 0 19 -13 52 -20 52
-4 0 -10 -10 -14 -22z"/>
<path d="M7594 7946 c-11 -29 1 -61 23 -64 24 -4 38 25 28 58 -7 23 -43 27
-51 6z"/>
<path d="M7744 7946 c-11 -29 1 -61 23 -64 24 -4 38 25 28 58 -7 23 -43 27
-51 6z"/>
<path d="M8207 7953 c-14 -13 -6 -23 18 -23 16 0 25 6 25 15 0 15 -31 21 -43
8z"/>
<path d="M9407 8400 c4 -14 9 -617 10 -1340 3 -1286 3 -1316 -16 -1380 -11
-36 -34 -86 -50 -112 -17 -27 -28 -48 -26 -48 14 0 68 103 88 165 l22 70 0
1290 c0 1200 -1 1293 -17 1335 -10 25 -15 34 -11 20z"/>
<path d="M10181 8394 c0 -11 3 -14 6 -6 3 7 2 16 -1 19 -3 4 -6 -2 -5 -13z"/>
<path d="M13135 7060 c0 -742 4 -1337 8 -1322 5 15 11 127 14 250 l6 222 664
0 c646 0 665 -1 703 -20 22 -11 52 -39 67 -62 28 -41 28 -44 31 -220 l3 -178
-73 0 -73 0 125 -125 125 -125 -333 0 -332 0 0 -80 0 -80 -70 0 -69 0 -3 -82
-3 -83 -72 -3 -73 -3 0 -755 0 -754 23 -9 c12 -5 74 -19 137 -32 96 -20 144
-24 290 -24 228 1 263 10 625 159 208 86 395 128 628 142 l107 6 0 74 0 74 65
0 64 0 3 78 3 77 78 9 77 8 0 639 0 639 -547 0 -548 0 125 125 125 125 -72 0
-71 0 -4 208 -3 207 -32 68 c-66 138 -194 236 -339 257 -40 5 -337 10 -711 10
l-642 0 -4 938 c-2 558 -7 948 -12 964 -7 18 -10 -454 -10 -1322z m1407 -611
c163 -34 296 -174 327 -343 6 -33 11 -135 11 -228 l0 -168 52 0 53 0 -113
-112 -112 -113 -112 113 -113 112 53 0 53 0 -3 199 -3 199 -31 39 c-17 21 -46
47 -65 58 -33 19 -55 20 -696 23 l-663 3 0 114 0 115 655 0 c440 0 671 -4 707
-11z m-48 -1704 c3 -8 6 -17 6 -20 0 -3 16 -48 35 -100 41 -112 42 -125 14
-125 -13 0 -25 11 -35 35 -13 32 -18 35 -54 35 -36 0 -41 -3 -54 -34 -17 -40
-27 -48 -46 -36 -13 8 -10 23 15 97 16 48 30 90 31 93 1 3 7 20 13 38 10 25
19 32 41 32 16 0 30 -7 34 -15z m346 -57 c0 -6 7 -4 16 3 22 18 64 12 88 -11
21 -20 38 -110 24 -126 -5 -5 -15 -18 -22 -28 -10 -14 -26 -20 -55 -20 -39 -1
-41 -2 -41 -33 0 -28 -3 -33 -25 -33 l-25 0 0 134 c0 129 1 134 20 129 11 -3
20 -10 20 -15z m-200 0 c0 -9 3 -9 12 0 21 21 75 14 96 -13 11 -13 21 -22 24
-20 6 7 -8 -98 -16 -117 -12 -26 -58 -46 -84 -37 -20 8 -22 5 -22 -26 0 -31
-3 -35 -25 -35 l-25 0 0 130 c0 123 1 130 20 130 11 0 20 -5 20 -12z m12 -405
c2 -21 1 -83 -2 -138 -5 -92 -7 -100 -25 -100 -19 0 -20 8 -23 138 l-3 137 25
0 c21 0 25 -5 28 -37z m-84 -1 c2 -12 0 -22 -5 -23 -4 0 -16 -2 -25 -4 -13 -2
-18 3 -18 19 0 13 3 26 7 30 14 13 38 1 41 -22z m-83 -2 c0 -11 -13 -16 -47
-18 -47 -3 -48 -4 -48 -38 0 -34 0 -34 45 -34 38 0 45 -3 45 -20 0 -17 -7 -20
-45 -20 l-45 0 0 -50 c0 -37 -4 -52 -16 -57 -8 -3 -19 -2 -24 3 -11 11 -15
227 -5 244 4 7 32 10 73 8 52 -2 67 -6 67 -18z m505 -73 c0 -15 -5 -17 -36
-11 -29 5 -36 4 -32 -7 3 -8 14 -19 25 -24 42 -21 54 -38 51 -69 -4 -40 -41
-61 -91 -52 -31 6 -37 11 -37 32 0 22 3 24 23 18 58 -18 77 5 25 32 -38 20
-48 31 -48 60 0 29 29 52 70 56 37 3 50 -6 50 -35z m-422 -64 c-3 -90 -5 -98
-23 -98 -18 0 -20 8 -23 98 l-3 97 26 0 26 0 -3 -97z m257 72 c17 -16 25 -35
25 -57 l0 -33 -60 3 c-62 4 -73 -4 -44 -32 11 -12 26 -14 55 -10 35 6 39 4 39
-14 0 -48 -109 -42 -147 7 -27 34 -6 140 29 154 34 14 80 6 103 -18z"/>
<path d="M14452 4670 c3 -8 -1 -21 -9 -28 -21 -21 -15 -32 17 -32 28 0 29 1
18 28 -13 31 -33 56 -26 32z"/>
<path d="M14868 4649 c-23 -13 -24 -72 -2 -90 35 -29 69 34 44 81 -12 23 -18
24 -42 9z"/>
<path d="M14673 4649 c-18 -6 -23 -16 -23 -42 0 -66 61 -76 68 -11 4 40 -17
65 -45 53z"/>
<path d="M14740 4185 c-11 -13 -7 -15 25 -15 32 0 36 2 25 15 -7 8 -18 15 -25
15 -7 0 -18 -7 -25 -15z"/>
<path d="M10167 8280 c-5 -52 -7 -639 -5 -1305 3 -1116 5 -1214 21 -1255 9
-25 14 -34 10 -20 -4 14 -10 621 -13 1350 -3 795 -8 1287 -13 1230z"/>
<path d="M6447 8270 c-12 -120 -4 -2518 8 -2552 7 -18 9 348 7 1045 -3 1435
-5 1615 -15 1507z"/>
<path d="M10600 7087 l0 -374 113 -12 c404 -44 643 -35 1072 39 280 48 592 77
858 80 l37 0 0 320 0 320 -1040 0 -1040 0 0 -373z m868 302 c46 -16 62 -71 38
-132 l-16 -44 -60 -2 -60 -2 0 95 0 96 34 0 c18 0 47 -5 64 -11z m252 -24 c0
-8 9 -15 20 -15 11 0 20 -7 20 -15 0 -8 -9 -15 -20 -15 -16 0 -20 -7 -20 -36
0 -27 5 -37 20 -41 21 -6 27 -28 9 -38 -19 -12 -57 5 -65 28 -4 12 -6 37 -5
55 1 17 -3 32 -9 32 -5 0 -10 7 -10 15 0 8 5 15 10 15 6 0 10 7 10 15 0 8 9
15 20 15 11 0 20 -7 20 -15z m-77 -37 c9 -15 12 -42 10 -74 l-5 -51 -44 -1
c-38 0 -47 4 -66 31 -12 17 -17 28 -11 24 6 -4 13 2 16 12 3 11 17 22 36 26
39 8 31 26 -9 18 -22 -4 -30 -2 -30 9 0 23 10 28 51 28 29 0 42 -5 52 -22z
m225 10 c7 -7 12 -39 12 -75 l0 -62 -32 1 c-57 1 -75 7 -80 26 -9 31 9 60 41
67 40 8 30 26 -9 18 -22 -4 -30 -2 -30 9 0 8 3 18 7 21 11 12 78 8 91 -5z
m202 -298 c0 -27 3 -30 33 -31 17 -1 36 -1 40 0 5 1 6 -2 4 -6 -3 -5 0 -21 7
-38 10 -24 10 -35 -2 -57 -17 -36 -27 -41 -79 -44 l-43 -3 0 105 c0 97 1 104
20 104 16 0 20 -7 20 -30z m-880 9 c0 -5 5 -7 12 -3 7 4 8 3 4 -5 -8 -13 33
-141 45 -141 4 0 5 -9 2 -20 -7 -27 -35 -22 -48 8 -15 33 -70 31 -79 -3 -6
-25 -29 -34 -40 -16 -3 5 9 50 26 100 28 78 36 91 55 91 13 0 23 -5 23 -11z
m480 -31 c21 -84 25 -86 40 -19 11 54 16 62 34 59 16 -2 24 -16 37 -63 17 -63
17 -63 39 23 8 31 16 42 30 42 24 0 24 -3 6 -65 -8 -26 -14 -51 -14 -54 1 -3
-6 -23 -15 -44 -24 -54 -47 -46 -68 22 l-16 55 -13 -53 c-22 -94 -54 -80 -88
41 -27 93 -27 98 -2 98 14 0 22 -11 30 -42z m-337 -12 c35 -1 44 -5 55 -29 8
-16 11 -40 7 -58 -7 -33 -47 -64 -70 -55 -11 4 -15 -1 -15 -19 0 -18 -5 -25
-20 -25 -17 0 -20 7 -21 48 0 26 -1 70 -2 98 -2 39 1 50 11 46 8 -3 32 -5 55
-6z m150 0 c32 -1 44 -6 53 -23 6 -13 13 -20 17 -17 3 3 1 -13 -5 -36 -11 -44
-47 -76 -73 -66 -11 4 -15 -1 -15 -19 0 -18 -5 -25 -20 -25 -18 0 -20 7 -21
73 0 39 -2 84 -3 98 -1 19 2 25 12 21 8 -2 32 -5 55 -6z m505 -8 c6 -6 12 -23
12 -39 0 -26 -4 -29 -32 -30 -18 -1 -37 -1 -41 0 -5 1 -7 -4 -4 -11 2 -8 19
-13 41 -12 29 1 36 -2 36 -17 0 -27 -62 -36 -95 -15 -14 9 -25 24 -26 34 0 9
-2 27 -3 39 -2 13 5 31 15 42 10 10 16 21 14 23 -9 9 71 -5 83 -14z"/>
<path d="M11400 7300 c0 -51 3 -60 18 -60 31 0 55 25 55 58 0 39 -18 62 -49
62 -23 0 -24 -3 -24 -60z"/>
<path d="M11585 7250 c4 -6 11 -8 16 -5 14 9 11 15 -7 15 -8 0 -12 -5 -9 -10z"/>
<path d="M11810 7250 c0 -5 4 -10 9 -10 6 0 13 5 16 10 3 6 -1 10 -9 10 -9 0
-16 -4 -16 -10z"/>
<path d="M12082 6968 c-15 -15 -16 -54 -2 -63 13 -8 40 12 40 29 0 7 -6 20
-13 29 -10 14 -15 15 -25 5z"/>
<path d="M11161 6993 c-1 -6 -4 -18 -7 -27 -4 -11 -1 -16 10 -16 18 0 19 6 6
35 -5 11 -9 15 -9 8z"/>
<path d="M11317 6963 c-11 -10 -8 -51 4 -59 17 -10 39 19 33 44 -6 21 -24 29
-37 15z"/>
<path d="M11472 6968 c-15 -15 -16 -54 -2 -63 13 -8 40 12 40 29 0 7 -6 20
-13 29 -10 14 -15 15 -25 5z"/>
<path d="M11925 6971 c-3 -6 3 -9 14 -8 11 0 17 5 15 9 -7 11 -22 10 -29 -1z"/>
<path d="M6880 7056 l0 -383 98 -12 c363 -42 659 -36 977 19 376 66 540 85
828 96 l177 7 0 328 0 329 -1040 0 -1040 0 0 -384z m897 292 c17 -16 23 -32
23 -65 0 -61 -32 -93 -95 -93 l-45 0 0 90 0 90 47 0 c34 0 53 -6 70 -22z m233
-3 c0 -8 7 -15 15 -15 8 0 15 -7 15 -15 0 -8 -7 -15 -16 -15 -12 0 -14 -9 -12
-42 2 -28 7 -42 16 -40 6 1 12 -5 12 -14 0 -11 -8 -14 -27 -12 -26 3 -28 7
-31 56 -2 28 -7 52 -13 52 -5 0 -9 7 -9 15 0 8 5 15 10 15 6 0 10 7 10 15 0 8
7 15 15 15 8 0 15 -7 15 -15z m-92 -27 c7 -7 12 -37 12 -68 l0 -57 -45 -1
c-33 -2 -46 2 -53 15 -17 33 4 63 46 63 14 0 22 6 22 16 0 13 -7 15 -35 11
-26 -4 -35 -2 -35 8 0 25 66 35 88 13z m230 0 c7 -7 12 -37 12 -68 l0 -57 -45
-1 c-33 -2 -46 2 -53 15 -17 33 4 63 46 63 14 0 22 6 22 16 0 13 -7 15 -35 11
-26 -4 -35 -2 -35 8 0 25 66 35 88 13z m200 -305 c2 -24 7 -30 22 -26 48 13
84 -50 58 -104 -12 -24 -19 -28 -61 -29 l-47 -2 0 100 c0 75 3 99 13 96 6 -3
13 -18 15 -35z m-862 -30 c9 -27 23 -63 31 -82 17 -43 16 -51 -2 -51 -9 0 -20
11 -25 25 -7 19 -17 25 -40 25 -23 0 -33 -6 -40 -25 -9 -25 -46 -37 -38 -12
55 154 62 167 79 167 12 0 23 -15 35 -47z m474 -5 c20 -83 26 -85 40 -18 12
54 31 83 46 67 3 -2 13 -33 23 -68 l18 -64 16 57 c10 31 17 61 17 67 0 12 30
16 30 4 0 -5 -10 -45 -22 -91 -19 -71 -26 -82 -42 -80 -16 2 -24 17 -35 63
-15 64 -20 62 -41 -22 -8 -31 -16 -43 -29 -43 -14 0 -23 17 -39 79 -26 92 -26
101 -8 101 9 0 19 -20 26 -52z m-298 -6 c17 -17 16 -85 -1 -106 -7 -9 -26 -16
-42 -16 -24 0 -29 -4 -29 -25 0 -16 -6 -25 -15 -25 -12 0 -15 17 -15 94 l0 94
45 -2 c24 -1 50 -7 57 -14z m150 0 c17 -17 16 -85 -1 -106 -7 -9 -26 -16 -42
-16 -24 0 -29 -4 -29 -25 0 -16 -6 -25 -15 -25 -12 0 -15 17 -15 94 l0 94 45
-2 c24 -1 50 -7 57 -14z m452 2 c9 -8 16 -26 16 -40 0 -21 -4 -24 -40 -24 -28
0 -40 -4 -40 -14 0 -19 26 -27 57 -20 19 5 24 3 21 -7 -7 -20 -81 -24 -97 -5
-19 22 -16 84 5 107 21 23 57 25 78 3z"/>
<path d="M7690 7286 c0 -63 1 -66 24 -66 32 0 56 25 56 59 0 35 -18 58 -52 67
l-28 6 0 -66z"/>
<path d="M7863 7235 c-3 -9 -3 -18 -1 -21 9 -9 38 8 38 22 0 19 -29 18 -37 -1z"/>
<path d="M8093 7235 c-3 -9 -3 -18 -1 -21 9 -9 38 8 38 22 0 19 -29 18 -37 -1z"/>
<path d="M8354 6946 c-3 -8 -4 -25 -2 -38 4 -31 44 -37 53 -9 12 40 -36 85
-51 47z"/>
<path d="M7436 6958 c-9 -35 -8 -38 14 -38 11 0 20 3 20 8 0 19 -13 52 -20 52
-4 0 -10 -10 -14 -22z"/>
<path d="M7594 6946 c-11 -29 1 -61 23 -64 24 -4 38 25 28 58 -7 23 -43 27
-51 6z"/>
<path d="M7744 6946 c-11 -29 1 -61 23 -64 24 -4 38 25 28 58 -7 23 -43 27
-51 6z"/>
<path d="M8207 6953 c-14 -13 -6 -23 18 -23 16 0 25 6 25 15 0 15 -31 21 -43
8z"/>
<path d="M3230 7250 c-36 -5 -76 -13 -90 -19 -22 -10 -21 -10 10 -4 45 10
2213 10 2260 1 29 -6 28 -5 -10 10 -41 15 -136 16 -1075 18 -566 1 -1059 -2
-1095 -6z"/>
<path d="M3068 7204 c-39 -21 -35 -28 5 -8 37 19 44 24 31 24 -5 -1 -21 -8
-36 -16z"/>
<path d="M5451 7216 c10 -9 69 -36 69 -32 0 6 -55 36 -66 36 -4 0 -5 -2 -3 -4z"/>
<path d="M2982 7150 c-23 -16 -60 -53 -82 -82 -41 -51 -85 -127 -78 -133 2 -2
17 21 32 51 29 56 109 146 156 177 14 9 22 16 19 16 -3 1 -24 -12 -47 -29z"/>
<path d="M5550 7163 c14 -10 45 -36 70 -58 l45 -39 -37 40 c-21 22 -52 47 -70
57 -32 17 -32 17 -8 0z"/>
<path d="M5660 7056 c0 -2 8 -10 18 -17 15 -13 16 -12 3 4 -13 16 -21 21 -21
13z"/>
<path d="M5712 6975 c12 -24 23 -43 26 -41 4 5 -36 86 -43 86 -3 0 5 -20 17
-45z"/>
<path d="M5748 6890 c4 -19 7 -1094 7 -2387 0 -1518 3 -2343 10 -2325 5 16 10
480 12 1190 l4 1162 905 0 c1010 0 951 4 992 -69 19 -34 22 -54 22 -165 l0
-126 -57 0 -58 0 105 -105 105 -105 -406 0 c-223 0 -442 -3 -485 -7 -43 -5
418 -10 1026 -13 608 -3 1116 -9 1130 -13 l25 -8 -25 11 c-14 6 -65 16 -115
22 -49 5 -91 11 -93 13 -11 11 24 133 59 203 118 240 457 428 834 462 300 27
667 -90 875 -278 53 -47 160 -190 160 -212 0 -5 -20 -10 -44 -12 l-45 -3 111
-90 110 -90 -144 -7 c-79 -4 -163 -14 -188 -23 -33 -10 -36 -12 -10 -7 19 4
536 7 1147 7 711 0 1103 3 1085 9 -16 6 -414 12 -955 15 l-927 6 76 93 75 92
-46 0 c-41 0 -48 3 -63 31 -67 122 -149 208 -276 290 -50 33 -122 72 -161 88
-154 64 -363 111 -498 111 -43 0 -66 4 -62 10 3 6 36 10 73 10 158 0 412 63
567 140 168 84 298 198 355 311 19 37 23 39 66 39 l45 0 -71 88 -70 87 902 6
c524 3 914 9 930 15 18 6 -375 9 -1085 9 -611 0 -1128 3 -1147 7 -26 6 -24 4
10 -8 28 -9 108 -17 212 -22 l168 -7 -104 -85 -105 -85 40 -3 c21 -2 39 -7 39
-13 0 -19 -54 -95 -108 -152 -95 -99 -241 -183 -417 -240 -276 -89 -486 -96
-760 -27 -202 51 -366 134 -485 246 -100 95 -157 192 -175 300 l-6 42 92 7
c51 4 111 14 134 21 22 8 29 11 15 7 -14 -4 -522 -10 -1130 -13 -608 -3 -1069
-8 -1026 -12 43 -5 113 -8 155 -8 l76 0 -95 -95 -95 -95 53 0 52 0 0 -137 c0
-119 -3 -142 -20 -170 -43 -71 -7 -68 -672 -71 l-597 -3 -3 1043 c-3 950 -5
1047 -20 1088 -15 38 -16 40 -10 10z m2922 -1632 c43 -220 249 -408 563 -513
124 -41 304 -75 406 -76 85 0 72 -17 -14 -18 -73 -1 -218 -27 -320 -56 -183
-53 -324 -130 -445 -243 -112 -104 -175 -215 -194 -344 l-7 -48 -427 0 -427 0
105 105 105 105 -58 0 -57 0 0 143 c0 78 -5 159 -10 179 -16 55 -85 152 -131
182 -78 52 -110 58 -316 64 -106 2 -193 5 -193 6 0 0 7 23 15 50 10 34 15 94
15 193 l0 143 52 0 53 0 -95 95 -95 95 731 0 731 0 13 -62z m162 2 c10 -71 66
-185 122 -247 111 -123 283 -223 496 -289 88 -27 74 -30 -39 -9 -91 18 -258
73 -335 112 -87 43 -183 112 -246 174 -68 69 -135 193 -146 272 l-6 48 73 -3
74 -3 7 -55z m-1570 -27 c43 -43 78 -81 78 -85 0 -5 -18 -8 -40 -8 l-40 0 0
-163 c0 -162 0 -164 -30 -224 -39 -77 -90 -129 -159 -162 l-56 -26 -607 -3
-608 -2 0 90 0 90 589 0 588 0 33 23 c69 46 75 63 78 228 l4 149 -41 0 c-23 0
-41 3 -41 7 0 11 153 163 165 163 5 0 45 -35 87 -77z m3716 16 c26 -33 49 -65
50 -70 2 -5 -11 -9 -30 -9 -30 0 -36 -5 -61 -53 -59 -114 -234 -252 -411 -326
-92 -38 -279 -87 -366 -95 l-65 -6 72 20 c134 37 261 87 345 136 102 60 244
196 282 272 l26 52 -30 0 c-16 0 -30 3 -29 8 0 9 151 132 161 132 5 0 29 -27
56 -61z m-3301 -551 c69 -26 148 -100 183 -173 22 -45 24 -66 28 -212 l4 -163
36 0 37 0 -83 -82 -82 -83 -82 83 -83 82 38 0 37 0 0 146 c0 131 -2 150 -21
181 -41 66 -52 68 -372 71 l-288 3 60 30 c54 27 141 107 141 130 0 5 88 9 195
9 174 0 200 -2 252 -22z m1886 -5 c-7 -2 -19 -2 -25 0 -7 3 -2 5 12 5 14 0 19
-2 13 -5z m-39 -83 c-119 -31 -279 -98 -361 -152 -118 -77 -221 -186 -271
-285 -22 -46 -44 -104 -47 -130 -12 -87 -8 -83 -92 -83 l-76 0 6 45 c16 113
94 255 186 336 146 130 369 233 588 273 113 20 151 18 67 -4z m687 5 c325 -57
607 -227 721 -434 30 -55 36 -61 66 -61 17 0 32 -3 32 -6 0 -14 -112 -145
-122 -142 -15 5 -167 132 -167 141 -1 4 13 7 30 7 27 0 30 3 24 23 -14 46 -89
149 -156 211 -117 111 -281 197 -479 251 -97 27 -72 32 51 10z"/>
<path d="M7643 5190 c-23 -64 -28 -90 -19 -90 7 0 18 11 24 25 9 19 19 25 42
25 23 0 33 -6 42 -25 12 -26 44 -36 35 -11 -3 8 -18 49 -33 90 -36 103 -50
101 -91 -14z m65 10 c11 -29 10 -30 -18 -30 -28 0 -28 1 -18 35 13 39 22 38
36 -5z"/>
<path d="M8173 5253 c-4 -10 -11 -22 -17 -26 -8 -6 -7 -10 2 -14 6 -2 12 -17
12 -33 0 -45 17 -80 39 -80 27 0 35 17 11 23 -16 4 -20 14 -20 45 0 32 4 41
23 47 l22 8 -22 4 c-15 3 -23 12 -23 24 0 24 -18 25 -27 2z"/>
<path d="M7812 5229 c-31 -12 -27 -44 8 -69 36 -26 30 -44 -12 -36 -21 4 -28
2 -25 -7 2 -7 21 -12 43 -12 37 0 39 2 39 30 0 23 -7 33 -27 43 -37 17 -35 32
2 32 17 0 30 4 30 9 0 13 -33 19 -58 10z"/>
<path d="M7928 5233 c-39 -10 -30 -65 13 -78 10 -4 19 -13 19 -22 0 -12 -7
-14 -31 -9 -22 4 -29 2 -27 -7 6 -17 56 -21 74 -6 23 19 16 47 -16 64 -37 19
-39 35 -5 35 28 0 34 15 9 24 -9 3 -16 5 -17 5 -1 -1 -10 -3 -19 -6z"/>
<path d="M8060 5232 c-40 -12 -55 -86 -24 -117 19 -18 85 -17 91 2 3 8 -6 10
-30 6 -29 -4 -37 -1 -46 16 -11 20 -9 21 34 21 41 0 45 2 45 24 0 33 -37 59
-70 48z m44 -37 c4 -12 -3 -15 -29 -15 -26 0 -33 3 -29 15 4 8 16 15 29 15 13
0 25 -7 29 -15z"/>
<path d="M2801 6874 c0 -11 3 -14 6 -6 3 7 2 16 -1 19 -3 4 -6 -2 -5 -13z"/>
<path d="M2788 6791 c-5 -35 -8 -220 -8 -410 l0 -346 -120 120 -120 120 0 -68
0 -67 -362 0 c-200 0 -394 -5 -432 -10 -135 -20 -263 -113 -320 -233 -37 -80
-46 -152 -46 -384 l0 -213 -335 0 -335 0 0 -80 0 -80 -70 0 -70 0 0 -85 0 -85
-75 0 -75 0 2 -767 3 -767 50 -13 c112 -30 281 -53 385 -53 190 0 297 27 560
139 257 110 435 155 666 167 l124 7 0 73 0 72 65 7 64 7 3 77 3 76 78 3 77 3
0 649 0 650 -430 0 -430 0 0 228 c0 217 1 229 23 267 13 22 40 49 62 62 40 22
44 23 428 23 l387 0 0 -67 0 -68 120 120 120 120 0 -1845 c0 -1132 4 -1871 10
-1912 11 -73 41 -163 65 -194 13 -16 13 -14 0 15 -54 110 -50 -85 -55 2461 -3
1290 -8 2316 -12 2281z m-121 -888 l-107 -108 0 53 0 52 -382 0 c-233 0 -398
-4 -420 -10 -50 -14 -97 -55 -119 -105 -16 -35 -19 -68 -19 -262 l0 -223 -111
0 -110 0 3 258 c3 253 3 258 29 312 38 80 98 150 162 188 99 59 120 62 565 62
l402 0 0 52 0 53 107 -108 108 -107 -108 -107z m-1532 -1395 c10 -29 24 -63
31 -75 8 -13 12 -23 10 -23 -3 0 1 -19 9 -41 20 -56 19 -69 -6 -69 -13 0 -25
11 -35 35 -12 30 -19 35 -47 35 -40 0 -53 -8 -66 -43 -7 -18 -18 -27 -32 -27
-19 0 -21 4 -14 33 4 17 8 42 9 54 1 11 3 20 6 18 3 -2 19 32 34 76 26 73 30
79 56 79 25 0 30 -6 45 -52z m135 -20 c0 -9 3 -9 12 0 22 22 73 14 99 -15 22
-25 24 -34 18 -82 -9 -65 -26 -85 -79 -86 -38 0 -40 -1 -40 -32 0 -28 -3 -33
-25 -33 l-25 0 0 130 c0 123 1 130 20 130 11 0 20 -5 20 -12z m200 1 c0 -8 4
-8 14 0 14 12 96 13 93 2 -1 -3 4 -15 10 -26 34 -62 6 -150 -51 -161 -19 -3
-39 -3 -45 1 -7 4 -11 -7 -11 -30 0 -34 -2 -36 -27 -33 -16 2 -27 6 -25 11 1
4 2 61 2 127 0 113 1 120 20 120 11 0 20 -5 20 -11z m-187 -511 l2 -135 -25 1
-25 1 -3 137 c-2 124 -1 137 15 140 10 3 22 2 26 -2 4 -4 9 -67 10 -142z
m-163 96 c0 -10 -14 -14 -48 -14 -48 0 -48 0 -50 -35 l-3 -35 46 0 c38 0 45
-3 45 -20 0 -17 -7 -20 -45 -20 l-45 0 1 -43 c2 -53 -5 -67 -34 -65 -21 2 -22
5 -20 116 1 63 4 120 7 128 3 8 26 14 63 16 60 3 83 -5 83 -28z m78 12 c4 -21
-14 -37 -35 -29 -14 5 -18 35 -6 47 12 12 38 1 41 -18z m265 -77 c9 -11 17
-34 17 -50 0 -29 -1 -29 -60 -29 -62 0 -71 -7 -44 -34 11 -12 26 -14 55 -10
35 6 39 4 39 -14 0 -16 -8 -23 -35 -28 -74 -13 -125 23 -125 89 0 44 13 75 43
98 26 21 85 9 110 -22z m-265 -66 c-3 -90 -5 -98 -23 -98 -18 0 -20 8 -23 98
l-3 97 26 0 26 0 -3 -97z m420 69 c3 -22 1 -23 -34 -16 -29 5 -36 4 -32 -7 3
-8 14 -19 25 -24 38 -20 53 -37 53 -64 -1 -50 -33 -68 -97 -56 -27 5 -33 11
-33 30 0 29 0 29 35 13 19 -9 28 -9 37 0 13 13 3 28 -22 34 -23 5 -50 38 -50
61 0 36 30 58 74 55 34 -2 42 -7 44 -26z"/>
<path d="M1083 4462 c3 -12 2 -20 -3 -17 -7 4 -20 -16 -20 -31 0 -10 29 -3 33
9 4 10 6 10 6 0 1 -7 5 -13 11 -13 6 0 5 11 -2 28 -16 37 -32 53 -25 24z"/>
<path d="M1298 4449 c-22 -12 -23 -58 -4 -85 31 -41 73 26 46 76 -12 23 -18
24 -42 9z"/>
<path d="M1498 4449 c-23 -13 -24 -72 -2 -90 35 -29 69 34 44 81 -12 23 -18
24 -42 9z"/>
<path d="M1370 3985 c-11 -13 -7 -15 25 -15 32 0 36 2 25 15 -7 8 -18 15 -25
15 -7 0 -18 -7 -25 -15z"/>
<path d="M3222 6143 l3 -597 35 -8 c179 -38 324 -53 525 -52 240 0 285 8 610
98 300 84 567 126 803 126 l102 0 0 515 0 515 -1040 0 -1040 0 2 -597z m469
429 c27 -23 30 -73 6 -100 -10 -11 -13 -22 -8 -28 5 -5 18 -32 29 -59 l20 -51
-24 -2 c-19 -1 -28 6 -41 36 -40 87 -71 96 -75 21 -2 -42 -7 -53 -24 -60 -22
-7 -22 -6 -23 117 -1 68 1 129 4 134 11 18 111 12 136 -8z m194 -67 c16 -15
25 -36 25 -55 0 -29 -1 -30 -47 -31 -27 -1 -54 -1 -60 0 -18 2 -16 -14 2 -33
12 -11 27 -14 60 -9 41 5 43 4 38 -16 -3 -11 -12 -21 -20 -21 -8 0 -12 -4 -9
-8 5 -9 -68 1 -96 12 -9 4 -19 14 -22 22 -3 9 -9 13 -13 11 -5 -3 -6 19 -5 48
3 40 10 61 27 80 32 34 86 34 120 0z m173 -3 c3 -22 1 -23 -34 -16 -29 5 -36
4 -32 -7 3 -8 14 -19 25 -24 39 -20 53 -37 53 -66 0 -15 -5 -31 -10 -34 -6 -4
-8 -9 -6 -13 6 -9 -41 -13 -81 -6 -27 4 -33 9 -33 31 0 20 3 24 18 18 55 -24
82 4 30 31 -38 19 -48 31 -48 58 0 35 30 57 74 54 34 -2 42 -7 44 -26z m187 3
c19 -18 25 -35 25 -68 0 -46 -29 -97 -55 -97 -7 0 -15 -4 -17 -9 -4 -13 -80
15 -95 36 -7 9 -13 39 -13 66 0 42 4 53 28 73 37 33 94 32 127 -1z m103 -48
c2 -48 7 -70 18 -74 29 -11 44 17 44 83 0 61 1 64 24 64 24 0 25 -3 28 -86 2
-47 -1 -92 -5 -100 -9 -16 -37 -19 -37 -4 0 5 -7 7 -15 4 -8 -4 -13 -10 -10
-14 10 -16 -70 10 -82 26 -8 11 -13 48 -13 97 0 76 1 78 23 75 20 -3 22 -9 25
-71z m262 47 c0 -16 -6 -24 -18 -24 -31 0 -42 -22 -42 -82 0 -46 -4 -59 -19
-67 -26 -15 -31 2 -31 109 l0 87 55 1 c52 0 55 -1 55 -24z m144 10 c31 -30 13
-51 -28 -33 -34 16 -56 -2 -56 -45 0 -49 12 -59 59 -51 33 5 41 4 41 -8 0 -9
-12 -24 -27 -35 -24 -16 -33 -18 -62 -8 -48 17 -62 42 -60 106 2 47 6 58 28
72 32 22 84 23 105 2z m185 -10 c12 -15 21 -40 21 -55 0 -29 -1 -29 -60 -29
-62 0 -71 -7 -44 -34 11 -12 26 -14 56 -10 38 7 40 6 36 -17 -1 -13 -9 -25
-15 -25 -7 -1 -16 -3 -20 -4 -16 -5 -59 2 -78 13 -33 17 -44 40 -45 88 0 63
32 99 89 99 31 0 44 -6 60 -26z m-99 -397 l0 -43 39 4 c32 3 42 -1 60 -23 25
-33 28 -93 6 -135 -17 -34 -75 -51 -100 -30 -11 9 -15 10 -15 0 0 -6 -8 -10
-17 -8 -15 3 -19 18 -23 88 -3 47 -3 109 -2 138 4 47 6 52 28 52 22 0 24 -4
24 -43z m-1131 -93 c22 -64 41 -122 41 -130 0 -8 -9 -14 -21 -14 -13 0 -25 11
-35 35 -13 32 -17 35 -55 33 -37 -1 -43 -5 -55 -35 -9 -22 -21 -33 -34 -33
-24 0 -25 14 -5 71 9 24 13 49 10 57 -2 7 -1 11 3 8 4 -2 18 24 31 60 21 58
25 64 51 64 26 0 29 -6 69 -116z m604 34 c11 -43 22 -76 26 -73 4 2 16 38 26
80 18 71 21 76 44 73 20 -2 27 -11 34 -40 5 -21 13 -38 19 -38 5 0 7 -4 4 -9
-3 -5 -3 -23 0 -41 9 -43 22 -26 43 56 14 57 21 70 39 72 27 4 28 -13 6 -87
-8 -29 -13 -60 -10 -68 4 -9 2 -11 -6 -7 -8 5 -9 0 -5 -15 3 -13 3 -20 -1 -17
-3 4 -11 -8 -16 -26 -8 -22 -18 -34 -33 -36 -26 -4 -33 8 -59 103 l-17 60 -21
-80 c-15 -59 -26 -81 -39 -83 -28 -6 -43 13 -57 73 -7 30 -17 55 -22 55 -5 0
-7 4 -4 8 3 5 -1 33 -9 63 -8 30 -15 55 -15 57 0 2 12 2 27 0 25 -3 29 -9 46
-80z m-503 10 c0 -9 3 -9 12 0 7 7 27 12 45 12 24 0 38 -7 54 -30 23 -30 32
-95 16 -115 -4 -5 -14 -19 -21 -29 -10 -14 -26 -20 -55 -20 -39 -1 -41 -2 -41
-33 0 -28 -3 -33 -25 -33 l-25 0 0 130 c0 123 1 130 20 130 11 0 20 -5 20 -12z
m200 0 c0 -9 3 -9 12 0 7 7 27 12 44 12 93 0 102 -178 10 -196 -19 -3 -39 -3
-45 1 -7 4 -11 -7 -11 -29 0 -32 -3 -36 -25 -36 -18 0 -25 5 -25 20 -1 11 -1
65 -1 120 0 55 0 105 1 110 0 14 40 12 40 -2z m715 -13 c16 -15 25 -36 25 -55
l0 -30 -60 0 c-62 0 -71 -7 -44 -34 11 -12 26 -14 55 -10 35 6 39 4 39 -14 0
-16 -8 -23 -35 -28 -64 -12 -117 18 -127 71 -6 31 17 96 39 112 28 22 81 16
108 -12z"/>
<path d="M3600 6515 c0 -37 13 -44 43 -21 21 16 22 42 1 50 -34 13 -44 7 -44
-29z"/>
<path d="M3800 6475 c-11 -13 -7 -15 25 -15 32 0 36 2 25 15 -7 8 -18 15 -25
15 -7 0 -18 -7 -25 -15z"/>
<path d="M4156 6474 c-30 -29 -17 -94 18 -94 31 0 46 19 46 55 0 50 -33 71
-64 39z"/>
<path d="M4850 6475 c-11 -13 -7 -15 25 -15 32 0 36 2 25 15 -7 8 -18 15 -25
15 -7 0 -18 -7 -25 -15z"/>
<path d="M4858 6019 c-23 -13 -23 -63 -1 -89 16 -18 18 -18 35 -3 22 20 23 66
2 87 -8 9 -16 16 -17 16 -1 0 -10 -5 -19 -11z"/>
<path d="M3629 6035 c-1 -11 -1 -23 0 -27 0 -5 -3 -8 -9 -8 -5 0 -10 -4 -10
-10 0 -5 13 -10 30 -10 28 0 29 1 18 28 -17 39 -28 49 -29 27z"/>
<path d="M3838 6019 c-12 -6 -18 -22 -18 -43 0 -41 24 -65 48 -49 19 11 29 73
13 73 -6 0 -10 5 -8 11 3 16 -15 20 -35 8z"/>
<path d="M4054 6022 c3 -5 -2 -9 -12 -8 -13 1 -17 -7 -17 -38 0 -46 23 -68 49
-47 17 15 22 71 6 71 -5 0 -9 5 -7 11 1 6 -4 14 -12 17 -8 2 -11 0 -7 -6z"/>
<path d="M4640 6015 c-11 -13 -7 -15 25 -15 32 0 36 2 25 15 -7 8 -18 15 -25
15 -7 0 -18 -7 -25 -15z"/>
<path d="M10600 6087 l0 -374 113 -12 c404 -44 643 -35 1072 39 280 48 592 77
858 80 l37 0 0 320 0 320 -1040 0 -1040 0 0 -373z m861 313 c28 -16 27 -84 -3
-104 -12 -9 -30 -16 -40 -16 -12 0 -18 -10 -20 -32 -2 -21 -8 -33 -18 -33 -18
0 -27 61 -22 143 l4 52 40 0 c21 0 48 -5 59 -10z m138 -53 c10 -13 14 -43 12
-98 -1 -35 -2 -36 -45 -36 -35 -1 -49 4 -65 23 -11 13 -17 24 -12 24 5 0 11 9
14 19 3 11 17 22 37 26 38 8 23 25 -16 17 -20 -4 -24 -1 -22 19 2 22 6 24 45
21 23 -2 46 -9 52 -15z m161 -8 c0 -11 -4 -17 -10 -14 -6 3 -10 -4 -10 -17 0
-13 -5 -29 -11 -35 -8 -8 -5 -17 10 -32 13 -13 18 -27 14 -38 -10 -26 -23 -33
-70 -33 -30 0 -45 5 -51 18 -9 17 -8 79 1 89 3 3 2 15 -2 27 -6 14 -4 25 5 34
8 7 13 16 10 20 -2 4 22 5 55 4 51 -3 59 -6 59 -23z m118 8 c6 -5 12 -22 12
-38 0 -27 -3 -29 -41 -29 -28 0 -39 -4 -36 -12 2 -8 20 -12 44 -11 36 1 40 -1
36 -17 -7 -27 -66 -37 -97 -17 -27 18 -36 49 -24 93 12 46 66 62 106 31z m192
-296 c0 -26 4 -30 32 -33 22 -2 36 -10 44 -25 6 -13 14 -20 17 -16 4 3 1 -15
-7 -41 -8 -27 -17 -50 -20 -53 -3 -3 -28 -7 -56 -9 l-50 -4 0 105 c0 98 1 105
20 105 15 0 20 -7 20 -29z m-851 -69 c17 -48 31 -93 31 -100 0 -21 -34 -9 -45
16 -15 33 -70 31 -79 -3 -6 -24 -29 -34 -40 -16 -3 5 3 34 13 64 11 30 17 58
14 61 -4 3 -1 6 5 6 6 0 13 14 17 30 5 23 12 30 29 30 20 0 28 -12 55 -88z
m451 46 c21 -84 25 -86 40 -19 11 54 16 62 34 59 16 -2 24 -16 37 -63 17 -63
17 -63 39 23 8 32 16 42 31 42 24 0 22 -17 -15 -129 -16 -52 -25 -66 -41 -66
-15 0 -23 13 -36 54 l-16 55 -13 -53 c-21 -86 -57 -80 -80 14 -7 30 -16 55
-19 55 -3 0 -7 16 -8 35 -3 29 0 35 17 35 14 0 22 -11 30 -42z m-282 -42 c8
-16 11 -39 7 -57 -7 -33 -47 -64 -70 -55 -11 4 -15 -1 -15 -19 0 -18 -5 -25
-19 -25 -17 0 -20 9 -23 68 -5 100 0 125 22 119 10 -2 24 -1 30 3 20 13 54 -4
68 -34z m612 -18 c0 -24 -4 -28 -27 -29 -16 -1 -34 -1 -42 0 -7 2 -11 -4 -9
-11 3 -8 19 -13 42 -12 29 1 36 -2 36 -17 0 -26 -62 -37 -94 -16 -28 19 -36
49 -24 94 8 32 15 36 73 45 25 5 44 -19 45 -54z m-461 18 c19 -41 1 -101 -35
-110 -14 -4 -29 -4 -34 -1 -6 4 -10 -5 -10 -19 0 -19 -5 -26 -19 -26 -18 0
-20 9 -23 94 l-3 95 55 -2 c50 -2 56 -5 69 -31z"/>
<path d="M11400 6345 c0 -20 4 -26 18 -23 9 2 17 12 17 23 0 11 -8 21 -17 23
-14 3 -18 -3 -18 -23z"/>
<path d="M11540 6260 c0 -5 4 -10 9 -10 6 0 13 5 16 10 3 6 -1 10 -9 10 -9 0
-16 -4 -16 -10z"/>
<path d="M11676 6322 c-3 -6 -1 -14 5 -17 15 -10 25 3 12 16 -7 7 -13 7 -17 1z"/>
<path d="M11670 6210 c0 -5 9 -10 20 -10 11 0 20 5 20 10 0 6 -9 10 -20 10
-11 0 -20 -4 -20 -10z"/>
<path d="M11815 6320 c-3 -5 3 -10 15 -10 12 0 18 5 15 10 -3 6 -10 10 -15 10
-5 0 -12 -4 -15 -10z"/>
<path d="M12083 5983 c-16 -6 -17 -59 -3 -68 13 -8 40 12 40 29 0 19 -24 44
-37 39z"/>
<path d="M11161 6003 c-1 -6 -4 -18 -7 -27 -4 -11 -1 -16 10 -16 18 0 19 6 6
35 -5 11 -9 15 -9 8z"/>
<path d="M11322 5978 c-15 -15 -16 -54 -2 -63 13 -8 40 12 40 29 0 7 -6 20
-13 29 -10 14 -15 15 -25 5z"/>
<path d="M11925 5980 c-3 -5 3 -10 15 -10 12 0 18 5 15 10 -3 6 -10 10 -15 10
-5 0 -12 -4 -15 -10z"/>
<path d="M11472 5978 c-15 -15 -16 -55 0 -64 6 -4 17 1 25 11 16 23 16 27 0
48 -10 14 -15 15 -25 5z"/>
<path d="M6880 6056 l0 -383 98 -12 c363 -42 659 -36 977 19 376 66 540 85
828 96 l177 7 0 328 0 329 -1040 0 -1040 0 0 -384z m868 302 c7 -7 12 -27 12
-45 0 -34 -21 -53 -59 -53 -17 0 -21 -6 -21 -35 0 -24 -5 -35 -15 -35 -12 0
-15 17 -15 90 l0 90 43 0 c24 0 48 -5 55 -12z m130 -40 c7 -7 12 -37 12 -68
l0 -57 -45 -1 c-33 -2 -46 2 -53 15 -17 33 4 63 46 63 14 0 22 6 22 16 0 13
-7 15 -35 11 -26 -4 -35 -2 -35 8 0 25 66 35 88 13z m157 -20 c-8 -41 -41 -71
-68 -62 -13 4 -17 2 -13 -5 4 -6 20 -11 35 -11 48 0 71 -49 32 -70 -27 -14
-76 -13 -89 3 -17 20 -4 149 16 165 9 6 33 12 55 12 38 0 39 0 32 -32z m125
12 c11 -11 20 -29 20 -40 0 -17 -7 -20 -45 -20 -25 0 -45 -4 -45 -9 0 -18 30
-33 55 -27 18 5 25 2 25 -9 0 -21 -68 -20 -92 2 -39 35 -10 123 42 123 11 0
29 -9 40 -20z m188 -297 c2 -24 7 -30 22 -26 48 13 84 -50 58 -104 -12 -24
-19 -28 -61 -29 l-47 -2 0 100 c0 75 3 99 13 96 6 -3 13 -18 15 -35z m-862
-30 c9 -27 23 -63 31 -82 17 -43 16 -51 -2 -51 -9 0 -20 11 -25 25 -7 19 -17
25 -40 25 -23 0 -33 -6 -40 -25 -9 -25 -46 -37 -38 -12 55 154 62 167 79 167
12 0 23 -15 35 -47z m474 -5 c20 -83 26 -85 40 -18 12 54 31 83 46 67 3 -2 13
-33 23 -68 l18 -64 16 57 c10 31 17 61 17 67 0 12 30 16 30 4 0 -5 -10 -45
-22 -91 -19 -71 -26 -82 -42 -80 -16 2 -24 17 -35 63 -15 64 -20 62 -41 -22
-8 -31 -16 -43 -29 -43 -14 0 -23 17 -39 79 -26 92 -26 101 -8 101 9 0 19 -20
26 -52z m-298 -6 c17 -17 16 -85 -1 -106 -7 -9 -26 -16 -42 -16 -24 0 -29 -4
-29 -25 0 -16 -6 -25 -15 -25 -12 0 -15 17 -15 94 l0 94 45 -2 c24 -1 50 -7
57 -14z m150 0 c17 -17 16 -85 -1 -106 -7 -9 -26 -16 -42 -16 -24 0 -29 -4
-29 -25 0 -16 -6 -25 -15 -25 -12 0 -15 17 -15 94 l0 94 45 -2 c24 -1 50 -7
57 -14z m452 2 c9 -8 16 -26 16 -40 0 -21 -4 -24 -40 -24 -28 0 -40 -4 -40
-14 0 -19 26 -27 57 -20 19 5 24 3 21 -7 -7 -20 -81 -24 -97 -5 -19 22 -16 84
5 107 21 23 57 25 78 3z"/>
<path d="M7680 6315 c0 -35 5 -40 34 -29 34 13 14 64 -25 64 -5 0 -9 -16 -9
-35z"/>
<path d="M7823 6235 c-3 -9 -3 -18 -1 -21 9 -9 38 8 38 22 0 19 -29 18 -37 -1z"/>
<path d="M7960 6280 c0 -15 5 -20 18 -18 9 2 17 10 17 18 0 8 -8 16 -17 18
-13 2 -18 -3 -18 -18z"/>
<path d="M7954 6189 c-6 -10 11 -29 26 -29 3 0 11 4 19 9 17 11 5 31 -19 31
-10 0 -22 -5 -26 -11z"/>
<path d="M8097 6294 c-15 -15 -6 -24 24 -24 20 0 29 4 27 13 -5 14 -40 21 -51
11z"/>
<path d="M8354 5946 c-3 -8 -4 -25 -2 -38 4 -31 44 -37 53 -9 12 40 -36 85
-51 47z"/>
<path d="M7436 5958 c-9 -35 -8 -38 14 -38 11 0 20 3 20 8 0 19 -13 52 -20 52
-4 0 -10 -10 -14 -22z"/>
<path d="M7594 5946 c-11 -28 1 -61 22 -64 25 -4 37 19 28 54 -7 27 -41 33
-50 10z"/>
<path d="M7744 5946 c-11 -29 1 -61 23 -64 24 -4 38 25 28 58 -7 23 -43 27
-51 6z"/>
<path d="M8207 5953 c-14 -13 -6 -23 18 -23 16 0 25 6 25 15 0 15 -31 21 -43
8z"/>
<path d="M14390 5980 c0 -142 1 -150 19 -150 17 0 20 8 23 53 l3 52 40 -52
c21 -29 47 -53 57 -53 26 0 22 12 -23 69 l-42 52 37 38 c20 20 36 40 36 44 0
19 -33 2 -69 -35 l-41 -43 0 88 c0 80 -2 87 -20 87 -19 0 -20 -7 -20 -150z"/>
<path d="M13190 5998 c1 -73 5 -119 13 -129 41 -54 142 -51 177 4 8 14 15 63
18 130 4 104 4 107 -17 107 -20 0 -21 -5 -21 -99 0 -84 -3 -102 -21 -125 -24
-31 -57 -34 -90 -7 -22 18 -24 28 -27 125 -3 83 -7 106 -18 106 -11 0 -14 -22
-14 -112z"/>
<path d="M13800 5970 c0 -116 3 -140 14 -140 11 0 16 15 18 53 l3 52 42 6 c74
9 110 67 79 127 -17 33 -39 42 -108 42 l-48 0 0 -140z m117 84 c15 -24 15 -29
2 -53 -11 -19 -24 -27 -52 -29 l-37 -3 0 55 0 56 35 0 c26 0 39 -6 52 -26z"/>
<path d="M13460 5935 c0 -98 1 -105 20 -105 18 0 20 7 20 73 0 77 15 107 52
107 27 0 37 -24 40 -100 2 -62 6 -75 21 -78 15 -3 17 6 17 72 0 41 -4 86 -10
100 -12 31 -52 43 -94 27 -20 -7 -32 -8 -34 -1 -2 5 -10 10 -18 10 -11 0 -14
-21 -14 -105z"/>
<path d="M14018 6029 c-10 -5 -18 -17 -18 -25 0 -12 4 -13 20 -4 12 6 35 10
53 8 26 -2 33 -8 35 -29 3 -24 0 -27 -44 -32 -30 -3 -53 -12 -61 -23 -42 -57
24 -118 90 -83 16 9 22 9 25 0 2 -6 10 -11 19 -11 13 0 14 15 11 91 -2 76 -6
93 -22 105 -23 16 -83 18 -108 3z m92 -123 c0 -30 -22 -49 -52 -44 -50 7 -25
68 29 68 18 0 23 -6 23 -24z"/>
<path d="M14244 6028 c-43 -20 -58 -102 -29 -157 21 -41 72 -54 116 -31 25 14
26 45 2 35 -63 -26 -93 -6 -93 61 0 66 30 86 93 59 12 -5 17 -3 17 9 0 31 -62
46 -106 24z"/>
<path d="M1090 5620 c0 -142 1 -150 19 -150 17 0 20 8 23 53 l3 52 40 -52 c21
-29 47 -53 57 -53 26 0 22 12 -23 69 l-42 52 37 38 c20 20 36 40 36 44 0 19
-33 2 -69 -35 l-41 -43 0 88 c0 80 -2 87 -20 87 -19 0 -20 -7 -20 -150z"/>
<path d="M490 5610 c0 -116 3 -140 14 -140 11 0 16 15 18 53 l3 52 42 6 c23 3
51 13 61 23 27 24 35 71 17 105 -16 32 -39 41 -107 41 l-48 0 0 -140z m117 84
c15 -24 15 -29 2 -53 -11 -19 -24 -27 -52 -29 l-37 -3 0 55 0 56 35 0 c26 0
39 -6 52 -26z"/>
<path d="M13111 5667 c-6 -19 -25 -56 -42 -83 -19 -32 -22 -40 -8 -24 25 29
74 129 66 136 -3 3 -10 -10 -16 -29z"/>
<path d="M708 5669 c-10 -5 -18 -17 -18 -25 0 -12 4 -13 20 -4 12 6 35 10 53
8 26 -2 33 -8 35 -29 3 -24 0 -27 -44 -32 -30 -3 -53 -12 -61 -23 -42 -57 24
-118 90 -83 16 9 22 9 25 0 2 -6 10 -11 19 -11 13 0 14 15 11 91 -2 76 -6 93
-22 105 -23 16 -83 18 -108 3z m92 -123 c0 -30 -22 -49 -52 -44 -50 7 -25 68
29 68 18 0 23 -6 23 -24z"/>
<path d="M934 5668 c-43 -20 -58 -102 -29 -157 21 -41 72 -54 116 -31 25 14
26 45 2 35 -63 -26 -93 -6 -93 61 0 66 30 86 93 59 12 -5 17 -3 17 9 0 31 -62
46 -106 24z"/>
<path d="M6476 5660 c20 -77 121 -209 185 -243 30 -16 31 -16 9 -1 -56 39
-132 130 -166 197 -19 40 -32 61 -28 47z"/>
<path d="M10200 5665 c0 -15 58 -113 72 -121 11 -6 11 -5 0 8 -7 8 -26 40 -42
69 -16 30 -30 50 -30 44z"/>
<path d="M11530 5555 c0 -78 3 -95 15 -95 12 0 15 17 15 95 0 78 -3 95 -15 95
-12 0 -15 -17 -15 -95z"/>
<path d="M11890 5557 l0 -93 44 -2 c52 -2 68 12 69 64 1 42 -30 76 -63 67 -17
-5 -20 0 -20 26 0 21 -5 31 -15 31 -12 0 -15 -17 -15 -93z m84 -3 c16 -42 -6
-80 -38 -68 -16 6 -23 64 -9 77 12 13 41 7 47 -9z"/>
<path d="M11000 5550 l0 -90 50 0 c28 0 50 5 50 10 0 6 -16 10 -35 10 l-35 0
0 80 c0 64 -3 80 -15 80 -12 0 -15 -17 -15 -90z"/>
<path d="M11670 5550 c0 -73 3 -90 15 -90 12 0 15 17 15 90 0 73 -3 90 -15 90
-12 0 -15 -17 -15 -90z"/>
<path d="M8340 5537 l0 -93 44 -2 c52 -2 68 12 69 64 1 42 -30 76 -63 67 -17
-5 -20 0 -20 26 0 21 -5 31 -15 31 -12 0 -15 -17 -15 -93z m84 -3 c16 -42 -6
-80 -38 -68 -16 6 -23 64 -9 77 12 13 41 7 47 -9z"/>
<path d="M7130 5530 c0 -73 3 -90 15 -90 11 0 15 11 15 40 0 54 26 54 48 0 9
-22 23 -40 30 -40 16 0 15 15 -3 51 -12 21 -13 34 -5 48 26 50 2 81 -64 81
l-36 0 0 -90z m68 61 c21 -13 10 -46 -16 -49 -19 -3 -22 1 -22 27 0 31 13 39
38 22z"/>
<path d="M8120 5530 c0 -53 4 -90 10 -90 6 0 10 37 10 90 0 53 -4 90 -10 90
-6 0 -10 -37 -10 -90z"/>
<path d="M7813 5593 c-4 -10 -11 -22 -17 -26 -8 -6 -7 -10 2 -14 6 -2 12 -17
12 -33 0 -45 17 -80 39 -80 27 0 35 17 11 23 -16 4 -20 14 -20 45 0 32 4 41
23 47 l22 8 -22 4 c-15 3 -23 12 -23 24 0 24 -18 25 -27 2z"/>
<path d="M11149 5586 c-55 -27 -45 -117 13 -124 57 -7 92 43 66 95 -16 33 -48
45 -79 29z m57 -41 c8 -30 0 -53 -21 -61 -22 -9 -45 14 -45 46 0 33 7 40 36
40 17 0 25 -7 30 -25z"/>
<path d="M11299 5586 c-19 -9 -25 -21 -27 -54 -2 -24 2 -50 9 -58 16 -19 63
-18 80 2 12 15 10 16 -19 10 -28 -7 -33 -4 -44 19 -16 35 0 60 38 60 16 1 28
5 27 10 -3 17 -40 23 -64 11z"/>
<path d="M11413 5590 c-36 -14 -27 -29 12 -23 46 7 48 -19 3 -32 -28 -8 -33
-15 -33 -40 0 -29 2 -30 48 -31 l47 -2 0 52 c0 28 -4 56 -8 62 -11 17 -44 24
-69 14z m47 -85 c0 -21 -28 -31 -43 -16 -9 9 -8 14 3 21 22 14 40 12 40 -5z"/>
<path d="M11785 5590 c-11 -4 -26 -5 -32 -3 -10 4 -13 -12 -13 -62 0 -80 22
-87 30 -9 4 41 8 49 25 49 17 0 20 -8 23 -52 2 -39 7 -53 18 -53 12 0 14 12
12 56 -3 63 -25 89 -63 74z"/>
<path d="M12080 5593 c-37 -13 -52 -71 -30 -114 14 -25 71 -26 93 -1 20 22 22
72 5 94 -15 19 -47 28 -68 21z m45 -68 c0 -34 -3 -40 -22 -43 -16 -2 -26 4
-34 21 -15 33 4 69 34 65 18 -2 22 -10 22 -43z"/>
<path d="M12180 5585 c0 -3 7 -17 16 -30 15 -23 15 -27 -5 -60 -16 -27 -17
-35 -6 -35 8 0 21 10 29 22 l16 22 16 -22 c8 -12 22 -22 30 -22 13 0 12 6 -6
35 -20 32 -20 36 -6 57 20 28 20 38 2 38 -8 0 -18 -10 -22 -22 l-7 -22 -17 22
c-17 20 -40 30 -40 17z"/>
<path d="M7309 5566 c-34 -17 -47 -61 -28 -94 12 -22 23 -28 57 -30 31 -2 42
1 42 11 0 10 -8 13 -25 9 -25 -4 -55 12 -55 29 0 5 18 9 40 9 45 0 58 16 41
48 -13 25 -43 33 -72 18z m49 -33 c2 -9 -7 -13 -27 -13 -30 0 -39 9 -24 24 11
10 46 3 51 -11z"/>
<path d="M7471 5570 c-7 -4 -22 -5 -32 -3 -17 5 -19 -1 -19 -61 0 -52 3 -66
15 -66 11 0 15 11 15 43 0 43 13 67 37 67 9 0 13 -17 13 -55 0 -42 3 -55 15
-55 11 0 15 11 15 43 0 43 13 67 37 67 9 0 13 -17 13 -55 0 -42 3 -55 15 -55
11 0 15 12 15 53 0 28 -4 57 -8 63 -11 17 -35 22 -54 13 -9 -5 -27 -5 -41 0
-13 5 -29 6 -36 1z"/>
<path d="M7689 5566 c-55 -27 -45 -117 13 -124 57 -7 92 43 66 95 -16 33 -48
45 -79 29z m57 -41 c8 -30 0 -53 -21 -61 -22 -9 -45 14 -45 46 0 33 7 40 36
40 17 0 25 -7 30 -25z"/>
<path d="M7940 5572 c-40 -12 -55 -86 -24 -117 19 -18 85 -17 91 2 3 8 -6 10
-30 6 -29 -4 -37 -1 -46 16 -11 20 -9 21 34 21 41 0 45 2 45 24 0 33 -37 59
-70 48z m44 -37 c4 -12 -3 -15 -29 -15 -26 0 -33 3 -29 15 4 8 16 15 29 15 13
0 25 -7 29 -15z"/>
<path d="M8235 5570 c-11 -4 -26 -5 -32 -3 -10 4 -13 -12 -13 -62 0 -80 22
-87 30 -9 4 41 8 49 25 49 17 0 20 -8 23 -52 2 -39 7 -53 18 -53 12 0 14 12
12 56 -3 63 -25 89 -63 74z"/>
<path d="M8519 5566 c-55 -27 -45 -117 13 -124 57 -7 92 43 66 95 -16 33 -48
45 -79 29z m57 -41 c8 -30 0 -53 -21 -61 -22 -9 -45 14 -45 46 0 33 7 40 36
40 17 0 25 -7 30 -25z"/>
<path d="M8630 5565 c0 -3 7 -17 16 -30 15 -23 15 -27 -5 -60 -16 -27 -17 -35
-6 -35 8 0 21 10 29 22 l16 22 16 -22 c8 -12 22 -22 30 -22 13 0 12 6 -6 35
-20 32 -20 36 -6 57 20 28 20 38 2 38 -8 0 -18 -10 -22 -22 l-7 -22 -17 22
c-17 20 -40 30 -40 17z"/>
<path d="M10312 5494 c37 -39 123 -97 163 -109 11 -4 -6 8 -39 26 -32 19 -82
54 -110 78 -50 44 -51 44 -14 5z"/>
<path d="M12989 5487 c-25 -23 -72 -57 -105 -75 -32 -19 -50 -31 -39 -27 38
12 125 69 162 107 49 51 39 48 -18 -5z"/>
<path d="M9269 5467 c-25 -23 -72 -57 -105 -75 -32 -19 -50 -31 -39 -27 38 12
125 69 162 107 49 51 39 48 -18 -5z"/>
<path d="M15980 4815 c0 -417 3 -635 10 -635 7 0 10 218 10 635 0 417 -3 635
-10 635 -7 0 -10 -218 -10 -635z"/>
<path d="M6700 5395 c0 -7 61 -37 66 -33 2 3 -12 12 -31 21 -19 9 -35 15 -35
12z"/>
<path d="M6818 5343 c7 -3 16 -2 19 1 4 3 -2 6 -13 5 -11 0 -14 -3 -6 -6z"/>
<path d="M11353 5210 c-23 -64 -28 -90 -19 -90 7 0 18 11 24 25 9 19 19 25 42
25 23 0 33 -6 42 -25 12 -26 44 -36 35 -11 -3 8 -18 49 -33 90 -36 103 -50
101 -91 -14z m65 10 c11 -29 10 -30 -18 -30 -28 0 -28 1 -18 35 13 39 22 38
36 -5z"/>
<path d="M11890 5271 c0 -11 -6 -22 -12 -24 -10 -4 -10 -7 -1 -14 6 -5 13 -31
15 -58 3 -46 5 -50 31 -53 15 -2 27 1 27 7 0 6 -7 11 -15 11 -11 0 -15 12 -15
45 0 33 4 45 15 45 8 0 15 5 15 10 0 6 -6 10 -14 10 -7 0 -16 9 -19 20 -7 26
-27 26 -27 1z"/>
<path d="M11528 5253 c-39 -10 -30 -65 13 -78 10 -4 19 -13 19 -22 0 -12 -7
-14 -31 -9 -22 4 -29 2 -27 -7 6 -17 56 -21 74 -6 23 19 16 47 -16 64 -37 19
-39 35 -5 35 28 0 34 15 9 24 -9 3 -16 5 -17 5 -1 -1 -10 -3 -19 -6z"/>
<path d="M11642 5249 c-31 -12 -27 -44 8 -69 36 -26 30 -44 -12 -36 -21 4 -28
2 -25 -7 2 -7 21 -12 43 -12 37 0 39 2 39 30 0 23 -7 33 -27 43 -37 17 -35 32
2 32 17 0 30 4 30 9 0 13 -33 19 -58 10z"/>
<path d="M11769 5246 c-34 -17 -47 -61 -28 -94 12 -22 23 -28 57 -30 31 -2 42
1 42 11 0 10 -8 13 -25 9 -25 -4 -55 12 -55 29 0 5 18 9 40 9 45 0 58 16 41
48 -13 25 -43 33 -72 18z m49 -33 c2 -9 -7 -13 -27 -13 -30 0 -39 9 -24 24 11
10 46 3 51 -11z"/>
<path d="M3222 4543 l3 -597 35 -8 c179 -38 324 -53 525 -52 240 0 285 8 610
98 300 84 567 126 803 126 l102 0 0 515 0 515 -1040 0 -1040 0 2 -597z m827
436 c41 -14 61 -54 61 -122 0 -45 -5 -59 -27 -83 -15 -16 -27 -31 -26 -34 3
-9 -131 0 -140 9 -10 10 -11 216 -1 232 7 13 95 11 133 -2z m321 -29 c0 -15 7
-20 25 -20 20 0 25 -5 25 -24 0 -19 -4 -22 -25 -18 -23 4 -25 2 -25 -36 0 -53
8 -72 31 -72 21 0 26 -29 8 -47 -13 -13 -58 0 -71 20 -4 7 -8 40 -8 75 0 48
-3 62 -15 62 -8 0 -15 9 -15 20 0 11 7 20 15 20 8 0 15 9 15 20 0 13 7 20 20
20 13 0 20 -7 20 -20z m-104 -37 c16 -15 19 -31 18 -90 -2 -89 -8 -110 -29
-93 -9 7 -23 9 -37 4 -45 -15 -88 11 -88 54 0 39 27 62 72 62 36 0 38 1 28 21
-11 20 -27 21 -74 3 -23 -9 -21 32 2 45 27 16 87 13 108 -6z m308 1 c12 -12
16 -37 16 -105 0 -88 0 -89 -21 -79 -11 7 -28 8 -37 4 -42 -18 -92 12 -92 54
0 39 27 62 72 62 36 0 38 1 28 21 -11 20 -27 21 -74 3 -23 -9 -21 32 2 45 26
16 89 13 106 -5z m266 -407 l0 -43 39 4 c32 3 42 -1 60 -23 25 -33 28 -93 6
-135 -17 -34 -75 -51 -100 -30 -11 9 -15 10 -15 0 0 -6 -8 -10 -17 -8 -15 3
-19 18 -23 88 -3 47 -3 109 -2 138 4 47 6 52 28 52 22 0 24 -4 24 -43z m-1131
-93 c22 -64 41 -122 41 -130 0 -8 -9 -14 -21 -14 -13 0 -25 11 -35 35 -13 32
-17 35 -55 33 -37 -1 -43 -5 -55 -35 -9 -22 -21 -33 -34 -33 -24 0 -25 14 -5
71 9 24 13 49 10 57 -2 7 -1 11 3 8 4 -2 18 24 31 60 21 58 25 64 51 64 26 0
29 -6 69 -116z m604 34 c11 -43 22 -76 26 -73 4 2 16 38 26 80 18 71 21 76 44
73 20 -2 27 -11 34 -40 5 -21 13 -38 19 -38 5 0 7 -4 4 -9 -3 -5 -3 -23 0 -41
9 -43 22 -26 43 56 14 57 21 70 39 72 27 4 28 -13 6 -87 -8 -29 -13 -60 -10
-68 4 -9 2 -11 -6 -7 -8 5 -9 0 -5 -15 3 -13 3 -20 -1 -17 -3 4 -11 -8 -16
-26 -8 -22 -18 -34 -33 -36 -26 -4 -33 8 -59 103 l-17 60 -21 -80 c-15 -59
-26 -81 -39 -83 -28 -6 -43 13 -57 73 -7 30 -17 55 -22 55 -5 0 -7 4 -4 8 3 5
-1 33 -9 63 -8 30 -15 55 -15 57 0 2 12 2 27 0 25 -3 29 -9 46 -80z m-503 10
c0 -9 3 -9 12 0 7 7 27 12 45 12 24 0 38 -7 54 -30 23 -30 32 -95 16 -115 -4
-5 -14 -19 -21 -29 -10 -14 -26 -20 -55 -20 -39 -1 -41 -2 -41 -33 0 -28 -3
-33 -25 -33 l-25 0 0 130 c0 123 1 130 20 130 11 0 20 -5 20 -12z m200 0 c0
-9 3 -9 12 0 7 7 27 12 44 12 93 0 102 -178 10 -196 -19 -3 -39 -3 -45 1 -7 4
-11 -7 -11 -29 0 -32 -3 -36 -25 -36 -18 0 -25 5 -25 20 -1 11 -1 65 -1 120 0
55 0 105 1 110 0 14 40 12 40 -2z m715 -13 c16 -15 25 -36 25 -55 l0 -30 -60
0 c-62 0 -71 -7 -44 -34 11 -12 26 -14 55 -10 35 6 39 4 39 -14 0 -16 -8 -23
-35 -28 -64 -12 -117 18 -127 71 -6 31 17 96 39 112 28 22 81 16 108 -12z"/>
<path d="M3961 4865 l-1 -85 30 0 c43 0 70 31 70 80 0 48 -35 90 -74 90 -24 0
-24 -2 -25 -85z"/>
<path d="M4203 4813 c-23 -4 -31 -27 -13 -38 12 -8 50 16 50 32 0 7 -3 12 -7
12 -5 -1 -18 -4 -30 -6z"/>
<path d="M4508 4813 c-21 -5 -24 -29 -5 -36 15 -6 47 15 47 32 0 11 -11 12
-42 4z"/>
<path d="M4858 4419 c-23 -13 -23 -63 -1 -89 16 -18 18 -18 35 -3 22 20 23 66
2 87 -8 9 -16 16 -17 16 -1 0 -10 -5 -19 -11z"/>
<path d="M3629 4435 c-1 -11 -1 -23 0 -27 0 -5 -3 -8 -9 -8 -5 0 -10 -4 -10
-10 0 -5 13 -10 30 -10 28 0 29 1 18 28 -17 39 -28 49 -29 27z"/>
<path d="M3838 4419 c-12 -6 -18 -22 -18 -43 0 -41 24 -65 48 -49 19 11 29 73
13 73 -6 0 -10 5 -8 11 3 16 -15 20 -35 8z"/>
<path d="M4054 4422 c3 -5 -2 -9 -12 -8 -13 1 -17 -7 -17 -38 0 -46 23 -68 49
-47 17 15 22 71 6 71 -5 0 -9 5 -7 11 1 6 -4 14 -12 17 -8 2 -11 0 -7 -6z"/>
<path d="M4640 4415 c-11 -13 -7 -15 25 -15 32 0 36 2 25 15 -7 8 -18 15 -25
15 -7 0 -18 -7 -25 -15z"/>
<path d="M10040 4930 c0 -143 1 -150 20 -150 19 0 20 7 20 150 0 143 -1 150
-20 150 -19 0 -20 -7 -20 -150z"/>
<path d="M10140 4930 c0 -143 1 -150 20 -150 19 0 20 7 20 150 0 143 -1 150
-20 150 -19 0 -20 -7 -20 -150z"/>
<path d="M9600 4920 c0 -116 3 -140 14 -140 11 0 16 15 18 53 l3 52 42 6 c74
9 110 67 79 127 -17 33 -39 42 -108 42 l-48 0 0 -140z m117 84 c15 -24 15 -29
2 -53 -11 -19 -24 -27 -52 -29 l-37 -3 0 55 0 56 35 0 c26 0 39 -6 52 -26z"/>
<path d="M9811 4906 c3 -65 8 -89 23 -105 21 -23 56 -27 89 -10 16 9 22 9 25
0 2 -6 10 -11 18 -11 11 0 14 21 14 105 0 98 -1 105 -20 105 -18 0 -20 -7 -20
-73 0 -76 -15 -107 -51 -107 -30 0 -39 24 -39 102 0 73 -1 78 -21 78 -20 0
-21 -4 -18 -84z"/>
<path d="M6640 4350 c0 -143 1 -150 20 -150 18 0 20 7 20 73 0 77 15 107 52
107 27 0 37 -24 40 -100 2 -62 6 -75 21 -78 15 -3 17 6 17 72 0 41 -4 86 -10
100 -11 31 -52 43 -92 28 l-28 -10 0 54 c0 47 -2 54 -20 54 -19 0 -20 -7 -20
-150z"/>
<path d="M6030 4340 c0 -116 3 -140 14 -140 11 0 16 15 18 53 l3 52 42 6 c23
3 51 13 61 23 27 24 35 71 17 105 -16 32 -39 41 -107 41 l-48 0 0 -140z m117
84 c15 -24 15 -29 2 -53 -11 -19 -24 -27 -52 -29 l-37 -3 0 55 0 56 35 0 c26
0 39 -6 52 -26z"/>
<path d="M6241 4326 c3 -65 8 -89 23 -105 21 -23 56 -27 89 -10 16 9 22 9 25
0 2 -6 10 -11 18 -11 11 0 14 21 14 105 0 98 -1 105 -20 105 -18 0 -20 -7 -20
-73 0 -76 -15 -107 -51 -107 -30 0 -39 24 -39 102 0 73 -1 78 -21 78 -20 0
-21 -4 -18 -84z"/>
<path d="M6481 4391 c-35 -35 -21 -71 40 -100 22 -10 34 -23 34 -36 0 -17 -6
-20 -47 -18 -34 1 -48 -3 -48 -12 0 -28 72 -34 108 -9 38 26 27 73 -23 101
-53 30 -54 58 -2 58 28 0 37 4 35 15 -5 25 -73 25 -97 1z"/>
<path d="M6775 3930 c-13 -5 -14 -9 -5 -9 8 0 24 4 35 9 13 5 14 9 5 9 -8 0
-24 -4 -35 -9z"/>
<path d="M6708 3904 c-39 -21 -35 -28 5 -8 37 19 44 24 31 24 -5 -1 -21 -8
-36 -16z"/>
<path d="M9091 3916 c10 -9 69 -36 69 -32 0 6 -55 36 -66 36 -4 0 -5 -2 -3 -4z"/>
<path d="M10488 3884 c-39 -21 -35 -28 5 -8 37 19 44 24 31 24 -5 -1 -21 -8
-36 -16z"/>
<path d="M12925 3868 c33 -18 89 -62 125 -98 40 -40 53 -50 33 -25 -17 22 -42
50 -55 62 -28 27 -138 93 -152 93 -6 0 16 -15 49 -32z"/>
<path d="M6619 3848 c-23 -18 -58 -53 -78 -78 -29 -37 -25 -34 24 16 33 33 71
68 85 77 14 9 22 16 18 16 -3 1 -25 -14 -49 -31z"/>
<path d="M9190 3863 c14 -10 45 -36 70 -58 l45 -39 -37 40 c-21 22 -52 47 -70
57 -32 17 -32 17 -8 0z"/>
<path d="M10402 3830 c-23 -16 -60 -53 -82 -82 -41 -51 -85 -127 -78 -133 2
-2 17 21 32 51 29 56 109 146 156 177 14 9 22 16 19 16 -3 1 -24 -12 -47 -29z"/>
<path d="M9300 3756 c0 -2 8 -10 18 -17 15 -13 16 -12 3 4 -13 16 -21 21 -21
13z"/>
<path d="M6473 3664 c-14 -30 -23 -57 -21 -59 2 -2 16 23 30 55 14 33 24 60
22 60 -3 0 -17 -25 -31 -56z"/>
<path d="M9352 3675 c12 -24 23 -43 26 -41 4 5 -36 86 -43 86 -3 0 5 -20 17
-45z"/>
<path d="M13138 3640 c14 -32 28 -57 30 -55 5 4 -45 115 -52 115 -2 0 8 -27
22 -60z"/>
<path d="M6860 3245 c0 -217 4 -375 9 -375 5 0 71 -7 148 -16 174 -21 597 -24
733 -5 52 7 185 28 295 46 293 49 454 66 698 72 l217 6 0 323 0 324 -1050 0
-1050 0 0 -375z m624 282 c8 -21 6 -31 -6 -44 -14 -13 -15 -19 -3 -37 7 -12
16 -31 20 -43 11 -39 -21 -27 -42 14 -25 50 -41 53 -45 7 -2 -21 -9 -39 -15
-42 -10 -3 -13 19 -13 88 l0 91 47 -3 c42 -3 49 -6 57 -31z m136 -27 c11 -11
20 -29 20 -40 0 -17 -7 -20 -45 -20 -25 0 -45 -4 -45 -9 0 -18 30 -33 55 -27
18 5 25 2 25 -9 0 -21 -68 -20 -92 2 -39 35 -10 123 42 123 11 0 29 -9 40 -20z
m128 3 c2 -8 -6 -13 -22 -13 -33 0 -34 -17 -2 -32 31 -13 39 -33 25 -59 -8
-16 -19 -19 -46 -17 -20 2 -38 9 -41 17 -3 10 3 12 26 6 42 -9 50 11 13 33
-33 18 -40 49 -19 70 16 16 60 12 66 -5z m142 -3 c42 -42 14 -120 -42 -120
-42 0 -68 25 -68 67 0 40 30 73 65 73 14 0 34 -9 45 -20z m78 -31 c4 -65 8
-72 32 -59 16 9 20 21 20 60 0 38 4 50 15 50 12 0 15 -14 15 -69 l0 -69 -42 0
c-59 -1 -68 10 -68 80 0 72 23 78 28 7z m202 38 c0 -7 -10 -17 -22 -22 -19 -8
-24 -19 -26 -57 -2 -34 -7 -48 -18 -48 -11 0 -14 15 -14 63 0 35 2 66 5 69 11
11 75 7 75 -5z m94 7 c29 -11 18 -32 -16 -30 -30 1 -33 -2 -36 -30 -4 -40 18
-60 48 -44 19 10 21 9 18 -7 -4 -24 -60 -30 -82 -8 -23 23 -20 81 4 105 21 21
37 24 64 14z m136 -14 c11 -11 20 -29 20 -40 0 -17 -7 -20 -45 -20 -25 0 -45
-4 -45 -9 0 -18 30 -33 55 -27 18 5 25 2 25 -9 0 -21 -68 -20 -92 2 -39 35
-10 123 42 123 11 0 29 -9 40 -20z m-70 -295 c0 -33 2 -35 25 -29 36 9 65 -20
65 -63 0 -59 -14 -73 -70 -72 l-50 2 0 92 c0 50 3 95 7 98 15 15 23 5 23 -28z
m-847 -63 c15 -43 27 -83 27 -90 0 -23 -28 -12 -34 13 -5 21 -12 25 -41 25
-29 0 -36 -4 -41 -25 -6 -23 -34 -37 -34 -17 0 9 28 93 49 145 20 50 43 34 74
-51z m462 26 c8 -28 15 -59 15 -67 1 -27 16 7 30 67 9 40 16 52 31 52 10 0 19
-5 19 -11 0 -19 33 -124 36 -114 29 108 36 125 50 125 10 0 14 -6 10 -17 -44
-153 -47 -163 -65 -163 -13 0 -22 16 -36 63 l-18 62 -15 -62 c-12 -48 -20 -63
-33 -63 -18 0 -22 10 -65 163 -4 11 0 17 10 17 10 0 21 -19 31 -52z m-302 -5
c22 -21 23 -86 0 -108 -10 -11 -27 -15 -45 -13 -25 4 -28 2 -28 -24 0 -18 -5
-28 -15 -28 -12 0 -15 16 -15 88 0 49 2 91 5 93 11 12 82 6 98 -8z m150 0 c22
-21 23 -86 0 -108 -10 -11 -27 -15 -45 -13 -25 4 -28 2 -28 -24 0 -18 -5 -28
-15 -28 -12 0 -15 16 -15 88 0 49 2 91 5 93 11 12 82 6 98 -8z m457 -3 c11
-11 20 -29 20 -40 0 -17 -7 -20 -45 -20 -25 0 -45 -4 -45 -9 0 -18 30 -33 55
-27 18 5 25 2 25 -9 0 -21 -68 -20 -92 2 -39 35 -10 123 42 123 11 0 29 -9 40
-20z"/>
<path d="M7410 3510 c0 -33 7 -37 35 -16 16 12 17 16 6 30 -22 26 -41 19 -41
-14z"/>
<path d="M7557 3484 c-15 -15 -6 -24 24 -24 20 0 29 4 27 13 -5 14 -40 21 -51
11z"/>
<path d="M7816 3474 c-16 -42 6 -80 38 -68 22 8 31 50 16 69 -16 20 -46 19
-54 -1z"/>
<path d="M8337 3484 c-15 -15 -6 -24 24 -24 20 0 29 4 27 13 -5 14 -40 21 -51
11z"/>
<path d="M8342 3138 c-18 -18 -14 -56 7 -67 25 -14 44 8 39 46 -3 30 -26 41
-46 21z"/>
<path d="M7421 3150 c-14 -42 -15 -40 15 -40 22 0 24 3 18 23 -14 47 -21 51
-33 17z"/>
<path d="M7582 3138 c-18 -18 -14 -56 7 -67 25 -14 44 8 39 46 -3 30 -26 41
-46 21z"/>
<path d="M7732 3138 c-18 -18 -14 -56 7 -67 25 -14 44 8 39 46 -3 30 -26 41
-46 21z"/>
<path d="M8187 3144 c-15 -15 -6 -24 24 -24 20 0 29 4 27 13 -5 14 -40 21 -51
11z"/>
<path d="M10642 3238 l3 -383 100 -12 c364 -44 638 -36 1036 31 334 56 505 75
747 83 l192 6 0 329 0 328 -1040 0 -1040 0 2 -382z m606 306 c24 -16 28 -44
12 -74 -7 -14 -6 -29 7 -55 12 -26 14 -38 6 -46 -16 -16 -33 -3 -49 37 -20 48
-44 45 -44 -6 0 -29 -4 -40 -15 -40 -12 0 -15 18 -15 100 l0 100 38 0 c21 0
48 -7 60 -16z m152 -42 c8 -4 17 -22 18 -39 3 -31 2 -33 -30 -34 -18 -1 -39
-1 -47 0 -7 2 -11 -4 -9 -11 3 -8 19 -13 42 -12 28 1 36 -2 36 -17 0 -22 -29
-32 -74 -24 -26 5 -36 13 -42 33 -17 61 10 112 59 111 17 0 39 -3 47 -7z m130
-13 c0 -18 -4 -20 -25 -15 -30 8 -34 -10 -5 -19 29 -9 43 -40 30 -65 -21 -40
-90 -37 -98 5 -3 14 1 16 27 10 39 -8 41 9 2 25 -28 11 -30 19 -15 68 2 7 20
12 44 12 34 0 40 -3 40 -21z m144 -1 c24 -34 20 -75 -10 -105 -20 -20 -31 -24
-57 -19 -39 8 -57 30 -57 71 0 49 25 75 70 75 29 0 43 -6 54 -22z m77 -10 c1
-18 0 -44 -1 -56 -1 -18 3 -23 17 -20 14 2 19 14 21 56 3 44 6 52 23 52 18 0
20 -6 17 -72 l-3 -72 -39 -3 c-65 -4 -76 8 -76 82 0 58 2 65 20 65 16 0 20 -7
21 -32z m199 15 c0 -15 2 -15 19 1 12 11 31 16 53 14 28 -3 33 -7 36 -31 3
-28 3 -28 -21 -12 -21 13 -26 13 -36 2 -6 -8 -10 -25 -7 -38 3 -20 9 -24 35
-21 25 2 31 -2 31 -17 0 -24 -50 -37 -79 -21 -20 10 -36 49 -34 82 2 21 -22
31 -36 15 -5 -7 -10 -32 -9 -55 0 -48 -4 -57 -27 -49 -11 5 -15 23 -15 77 l0
70 45 0 c35 0 45 -4 45 -17z m238 5 c7 -7 12 -25 12 -40 0 -26 -3 -28 -41 -28
-28 0 -39 -4 -36 -12 2 -8 19 -13 41 -12 29 1 36 -2 36 -17 0 -26 -62 -37 -94
-16 -38 25 -40 106 -3 129 19 12 72 9 85 -4z m-78 -298 c0 -28 3 -30 35 -30
40 0 55 -20 55 -74 0 -52 -28 -76 -82 -73 l-43 3 -3 102 c-3 97 -2 102 18 102
16 0 20 -6 20 -30z m-844 -75 c17 -49 30 -93 27 -97 -9 -17 -34 -7 -43 17 -7
19 -17 25 -38 25 -21 0 -32 -7 -40 -25 -13 -28 -42 -34 -42 -9 0 9 11 48 25
87 14 39 24 76 21 82 -3 8 7 12 27 11 30 -1 32 -4 63 -91z m455 53 c7 -24 14
-49 15 -56 6 -30 12 -20 24 38 11 52 16 60 35 60 19 0 24 -8 35 -62 15 -66 19
-64 40 20 8 32 16 42 31 42 18 0 20 -4 14 -32 -19 -86 -51 -163 -68 -166 -12
-3 -20 4 -24 17 -3 11 -9 18 -14 15 -5 -3 -7 1 -4 8 3 7 1 27 -3 43 -8 29 -9
29 -21 -23 -23 -95 -55 -81 -89 40 -27 93 -27 98 -2 98 14 0 22 -11 31 -42z
m-281 -80 c0 -47 -31 -82 -66 -75 -21 4 -24 0 -24 -24 0 -18 -5 -27 -15 -25
-23 3 -25 9 -26 82 -2 121 -6 113 54 116 60 3 76 -12 77 -74z m140 53 c30 -57
-5 -138 -56 -128 -20 3 -24 0 -24 -19 0 -17 -6 -24 -20 -24 -19 0 -20 7 -20
95 l0 95 55 0 c43 0 56 -4 65 -19z m456 2 c11 -11 18 -28 16 -40 -3 -20 -9
-23 -49 -23 -31 0 -43 -4 -40 -12 2 -8 19 -13 41 -12 28 1 36 -2 36 -17 0 -36
-90 -36 -110 1 -15 28 -12 73 6 98 19 27 72 30 100 5z"/>
<path d="M11182 3503 c4 -22 43 -25 43 -3 0 8 -11 16 -23 18 -19 3 -23 0 -20
-15z"/>
<path d="M11345 3470 c-3 -5 3 -10 15 -10 12 0 18 5 15 10 -3 6 -10 10 -15 10
-5 0 -12 -4 -15 -10z"/>
<path d="M11601 3466 c-18 -22 -10 -61 13 -61 26 0 44 30 30 52 -15 23 -29 26
-43 9z"/>
<path d="M12125 3470 c-3 -5 3 -10 15 -10 12 0 18 5 15 10 -3 6 -10 10 -15 10
-5 0 -12 -4 -15 -10z"/>
<path d="M12122 3128 c-17 -17 -15 -43 3 -58 21 -18 37 0 33 36 -3 31 -18 40
-36 22z"/>
<path d="M11196 3125 c-3 -9 0 -15 9 -15 8 0 15 7 15 15 0 8 -4 15 -9 15 -5 0
-11 -7 -15 -15z"/>
<path d="M11364 3128 c-15 -23 -14 -46 2 -59 20 -17 36 1 32 37 -3 30 -22 42
-34 22z"/>
<path d="M11512 3128 c-17 -17 -15 -43 3 -58 21 -18 37 0 33 36 -3 31 -18 40
-36 22z"/>
<path d="M11975 3130 c-3 -5 3 -10 15 -10 12 0 18 5 15 10 -3 6 -10 10 -15 10
-5 0 -12 -4 -15 -10z"/>
<path d="M10219 3548 c-12 -43 -14 -285 -14 -1338 0 -811 4 -1295 10 -1312 7
-18 9 423 7 1290 -2 920 1 1330 8 1361 6 24 9 45 7 48 -3 2 -11 -20 -18 -49z"/>
<path d="M6433 3543 c-12 -70 -10 -2612 2 -2645 7 -18 10 438 10 1332 0 748
-1 1360 -2 1360 -1 0 -5 -21 -10 -47z"/>
<path d="M9398 2258 c3 -1443 5 -1371 -49 -1483 -13 -26 -14 -33 -4 -21 26 34
56 127 66 210 13 107 7 2561 -6 2598 -7 18 -9 -441 -7 -1304z"/>
<path d="M13171 3554 c0 -11 3 -14 6 -6 3 7 2 16 -1 19 -3 4 -6 -2 -5 -13z"/>
<path d="M3220 2956 c0 -516 2 -605 14 -609 8 -3 86 -18 173 -34 141 -24 181
-27 373 -27 246 1 279 6 610 99 289 80 545 125 718 125 38 0 97 3 131 6 l61 7
0 518 0 519 -1040 0 -1040 0 0 -604z m813 432 c24 -13 39 -55 32 -90 -8 -35
-40 -58 -82 -58 -31 0 -32 -1 -35 -47 -3 -40 -6 -48 -23 -48 -19 0 -20 8 -25
118 -3 66 -2 121 3 124 4 2 5 8 3 12 -7 10 105 1 127 -11z m181 -64 c12 -11
16 -36 16 -98 l0 -82 -52 -1 c-64 -2 -98 17 -98 54 0 40 27 63 72 63 36 0 38
1 28 21 -11 20 -27 21 -74 3 -23 -9 -21 32 2 45 26 16 89 13 106 -5z m212 4
c4 -6 -1 -17 -10 -24 -9 -6 -12 -14 -7 -15 7 -3 4 -17 -7 -39 -14 -29 -24 -36
-57 -40 l-40 -5 43 -7 c23 -3 49 -12 57 -18 23 -19 19 -66 -7 -84 -29 -21
-111 -21 -128 -1 -7 8 -16 13 -20 10 -5 -3 -4 9 0 27 5 18 11 66 13 107 3 57
8 77 22 88 23 16 131 18 141 1z m158 -9 c19 -15 26 -30 26 -55 l0 -34 -60 0
c-62 0 -71 -7 -44 -34 11 -12 26 -14 53 -10 30 5 39 3 44 -10 5 -12 -1 -20
-19 -26 -50 -19 -103 -8 -131 29 -27 34 -6 140 29 154 30 12 77 6 102 -14z
m256 -402 l0 -43 39 4 c32 3 42 -1 60 -23 25 -33 28 -93 6 -135 -17 -34 -75
-51 -100 -30 -11 9 -15 10 -15 0 0 -6 -8 -10 -17 -8 -15 3 -19 17 -23 83 -3
44 -3 106 -2 138 4 53 6 57 28 57 22 0 24 -4 24 -43z m-1131 -93 c22 -64 41
-122 41 -130 0 -8 -9 -14 -21 -14 -13 0 -25 11 -35 35 -13 32 -18 35 -55 35
-36 0 -41 -3 -55 -35 -9 -23 -21 -35 -34 -35 -24 0 -25 14 -5 70 8 23 12 46 9
51 -3 5 -1 9 5 9 5 0 19 29 31 65 20 59 24 65 50 65 26 0 29 -6 69 -116z m604
34 c11 -43 22 -76 26 -73 4 2 16 38 26 80 18 71 21 76 45 73 17 -2 26 -10 28
-26 2 -13 8 -20 14 -16 7 4 8 2 4 -5 -4 -7 -4 -20 0 -29 8 -20 10 -29 12 -59
4 -45 20 -21 39 55 16 65 22 78 41 80 29 4 29 -10 -7 -135 -34 -120 -36 -123
-62 -123 -22 0 -30 17 -55 105 l-17 60 -21 -80 c-19 -73 -23 -80 -46 -80 -22
0 -28 8 -46 62 -11 35 -24 60 -28 56 -4 -4 -4 -1 -1 8 3 8 -1 37 -10 64 -20
66 -19 67 12 63 25 -3 29 -9 46 -80z m-390 -9 c17 -24 32 -123 16 -113 -3 2
-11 -7 -17 -21 -11 -24 -69 -44 -91 -30 -7 4 -11 -7 -11 -29 0 -32 -3 -36 -25
-36 l-25 0 0 130 c0 123 1 130 20 130 11 0 20 -5 20 -12 0 -8 5 -7 16 3 22 22
72 10 97 -22z m197 4 c24 -31 27 -91 5 -133 -15 -29 -71 -50 -94 -35 -7 4 -11
-7 -11 -29 0 -32 -3 -36 -25 -36 -15 0 -25 6 -25 15 -1 8 -1 60 -1 115 0 55 0
106 1 114 0 9 18 13 65 14 58 1 66 -1 85 -25z m609 1 c12 -15 21 -40 21 -55 0
-29 -1 -29 -60 -29 -62 0 -71 -7 -44 -34 11 -12 26 -14 55 -10 34 6 39 4 39
-14 0 -12 -9 -22 -22 -26 -107 -28 -174 56 -123 154 17 33 27 38 77 39 28 1
41 -5 57 -25z"/>
<path d="M3950 3320 c0 -34 3 -40 21 -40 13 0 18 4 13 12 -5 7 -3 8 6 3 11 -7
29 9 30 27 0 14 -32 38 -51 38 -16 0 -19 -7 -19 -40z"/>
<path d="M4144 3215 c-16 -12 -17 -16 -4 -24 16 -11 33 -4 25 10 -3 5 1 6 9 3
11 -4 16 0 16 10 0 20 -20 21 -46 1z"/>
<path d="M4314 3285 c-4 -9 -2 -21 4 -27 15 -15 44 -1 40 19 -4 23 -36 29 -44
8z"/>
<path d="M4305 3150 c-11 -17 5 -30 36 -30 18 0 29 5 29 14 0 23 -53 36 -65
16z"/>
<path d="M4500 3285 c-11 -13 -7 -15 25 -15 32 0 36 2 25 15 -7 8 -18 15 -25
15 -7 0 -18 -7 -25 -15z"/>
<path d="M4856 2827 c-22 -16 -18 -75 6 -91 14 -8 22 -7 35 6 13 14 15 24 7
54 -10 42 -22 50 -48 31z"/>
<path d="M3628 2844 c0 -10 -1 -25 -1 -31 1 -7 -3 -10 -8 -7 -5 3 -9 0 -9 -5
0 -6 13 -11 29 -11 l29 0 -15 33 c-21 42 -23 44 -25 21z"/>
<path d="M3838 2829 c-23 -13 -24 -72 -2 -90 23 -19 48 1 52 41 2 18 -1 30 -6
26 -5 -3 -9 2 -8 11 1 20 -14 25 -36 12z"/>
<path d="M4038 2829 c-23 -13 -24 -72 -2 -90 23 -19 48 1 52 41 2 18 -1 30 -6
26 -5 -3 -9 2 -8 11 1 20 -14 25 -36 12z"/>
<path d="M4640 2825 c-11 -13 -8 -15 20 -15 21 0 30 4 28 13 -7 18 -33 20 -48
2z"/>
<path d="M13183 2220 c0 -723 3 -1290 7 -1260 5 30 8 597 8 1260 0 663 -3
1230 -8 1260 -4 30 -7 -537 -7 -1260z"/>
<path d="M6860 2245 c0 -217 4 -375 9 -375 5 0 71 -7 148 -16 174 -21 597 -24
733 -5 52 7 185 28 295 46 293 49 454 66 698 72 l217 6 0 323 0 324 -1050 0
-1050 0 0 -375z m890 305 c28 -15 44 -73 30 -114 -12 -37 -44 -56 -95 -56
l-35 0 0 90 0 90 41 0 c22 0 49 -4 59 -10z m240 -14 c0 -7 9 -16 20 -19 11 -3
20 -10 20 -16 0 -6 -9 -11 -20 -11 -17 0 -20 -7 -20 -39 0 -30 4 -40 20 -44
27 -7 25 -27 -3 -27 -34 0 -47 19 -47 66 0 23 -5 44 -10 46 -14 4 11 58 28 58
6 0 12 -6 12 -14z m-86 -32 c11 -10 16 -34 16 -69 l0 -54 -46 2 c-32 1 -50 7
-58 20 -16 25 4 51 43 55 42 4 35 27 -7 27 -18 0 -32 5 -32 12 0 25 61 31 84
7z m225 7 c9 -6 16 -32 19 -70 l4 -60 -47 2 c-33 1 -51 7 -59 20 -16 25 4 51
43 55 42 4 35 27 -7 27 -18 0 -32 5 -32 12 0 21 53 30 79 14z m201 -306 c0
-33 2 -35 25 -29 36 9 65 -20 65 -63 0 -59 -14 -73 -70 -72 l-50 2 0 92 c0 50
3 95 7 98 15 15 23 5 23 -28z m-847 -63 c15 -43 27 -83 27 -90 0 -23 -28 -12
-34 13 -5 21 -12 25 -41 25 -29 0 -36 -4 -41 -25 -6 -23 -34 -37 -34 -17 0 9
28 93 49 145 20 50 43 34 74 -51z m462 26 c8 -28 15 -59 15 -67 1 -27 16 7 30
67 9 40 16 52 31 52 10 0 19 -5 19 -11 0 -19 33 -124 36 -114 29 108 36 125
50 125 10 0 14 -6 10 -17 -44 -153 -47 -163 -65 -163 -13 0 -22 16 -36 63
l-18 62 -15 -62 c-12 -48 -20 -63 -33 -63 -18 0 -22 10 -65 163 -4 11 0 17 10
17 10 0 21 -19 31 -52z m-302 -5 c22 -21 23 -86 0 -108 -10 -11 -27 -15 -45
-13 -25 4 -28 2 -28 -24 0 -18 -5 -28 -15 -28 -12 0 -15 16 -15 88 0 49 2 91
5 93 11 12 82 6 98 -8z m150 0 c22 -21 23 -86 0 -108 -10 -11 -27 -15 -45 -13
-25 4 -28 2 -28 -24 0 -18 -5 -28 -15 -28 -12 0 -15 16 -15 88 0 49 2 91 5 93
11 12 82 6 98 -8z m457 -3 c11 -11 20 -29 20 -40 0 -17 -7 -20 -45 -20 -25 0
-45 -4 -45 -9 0 -18 30 -33 55 -27 18 5 25 2 25 -9 0 -21 -68 -20 -92 2 -39
35 -10 123 42 123 11 0 29 -9 40 -20z"/>
<path d="M7679 2508 c-2 -18 -3 -48 -1 -65 3 -27 8 -33 26 -33 51 0 69 77 27
112 -34 26 -48 22 -52 -14z"/>
<path d="M7844 2429 c-11 -18 13 -34 31 -19 8 7 15 16 15 21 0 13 -38 11 -46
-2z"/>
<path d="M8074 2429 c-11 -18 13 -34 31 -19 8 7 15 16 15 21 0 13 -38 11 -46
-2z"/>
<path d="M8342 2138 c-18 -18 -14 -56 7 -67 25 -14 44 8 39 46 -3 30 -26 41
-46 21z"/>
<path d="M7421 2150 c-14 -42 -15 -40 15 -40 22 0 24 3 18 23 -14 47 -21 51
-33 17z"/>
<path d="M7582 2138 c-18 -18 -14 -56 7 -67 25 -14 44 8 39 46 -3 30 -26 41
-46 21z"/>
<path d="M7732 2138 c-18 -18 -14 -56 7 -67 25 -14 44 8 39 46 -3 30 -26 41
-46 21z"/>
<path d="M8187 2144 c-15 -15 -6 -24 24 -24 20 0 29 4 27 13 -5 14 -40 21 -51
11z"/>
<path d="M10640 2247 l0 -374 113 -12 c404 -44 643 -35 1072 39 280 48 592 77
858 80 l37 0 0 320 0 320 -1040 0 -1040 0 0 -373z m880 300 c34 -17 53 -61 45
-103 -10 -53 -36 -74 -95 -74 l-50 0 -1 60 c-1 33 -1 71 -1 85 0 14 0 30 1 35
1 14 71 12 101 -3z m250 -22 c0 -8 9 -15 20 -15 11 0 20 -7 20 -15 0 -8 -9
-15 -21 -15 -17 0 -20 -5 -17 -37 2 -28 8 -39 22 -41 10 -2 16 0 12 6 -5 9 41
60 50 55 12 -8 34 -2 29 8 -4 6 -19 7 -37 4 -25 -6 -29 -4 -26 12 2 13 14 19
46 21 39 3 43 1 55 -28 8 -18 11 -48 8 -72 -6 -41 -7 -42 -45 -45 -22 -1 -47
2 -57 7 -11 7 -20 7 -24 0 -9 -15 -42 -12 -59 6 -10 9 -16 33 -16 60 0 24 -4
44 -10 44 -5 0 -10 7 -10 15 0 8 5 15 10 15 6 0 10 7 10 15 0 8 9 15 20 15 11
0 20 -7 20 -15z m-80 -35 c6 -11 10 -44 8 -72 l-3 -52 -39 -3 c-22 -1 -47 2
-56 7 -20 11 -32 47 -19 56 5 3 6 10 3 16 -4 6 -3 9 2 6 5 -3 25 0 44 7 28 10
32 14 17 20 -9 4 -24 2 -31 -4 -17 -14 -31 2 -22 24 9 24 83 20 96 -5z m420
-290 c0 -28 3 -30 38 -31 20 -1 39 -1 42 -1 3 0 7 -24 8 -53 4 -71 -18 -96
-80 -92 l-43 3 -3 102 c-3 97 -2 102 18 102 16 0 20 -6 20 -30z m-844 -75 c18
-49 30 -93 27 -97 -9 -17 -34 -7 -43 17 -7 19 -17 25 -40 25 -23 0 -33 -6 -40
-25 -11 -28 -40 -34 -40 -9 0 9 11 49 25 88 14 39 28 77 30 84 3 7 15 12 27
10 18 -2 28 -20 54 -93z m454 53 c6 -24 15 -52 20 -63 8 -19 9 -18 11 5 1 14
3 30 3 37 1 6 5 15 9 19 4 4 7 16 7 26 0 11 7 18 18 18 26 0 37 -12 40 -45 2
-16 7 -31 12 -33 4 -2 6 -13 4 -25 -4 -21 -4 -21 5 -2 6 11 15 39 21 63 8 32
16 42 31 42 18 0 20 -4 13 -32 -4 -18 -8 -41 -8 -50 0 -10 -4 -18 -9 -18 -4 0
-7 -6 -6 -12 2 -7 -5 -30 -14 -51 -23 -54 -47 -46 -68 22 l-16 55 -13 -53
c-20 -86 -57 -80 -80 14 -7 30 -16 53 -19 51 -3 -2 -7 14 -8 35 -2 33 1 39 17
39 14 0 22 -11 30 -42z m-336 -6 c20 2 36 0 36 -5 0 -4 3 -6 8 -3 4 2 9 -20
10 -49 3 -44 -1 -58 -18 -75 -15 -15 -30 -20 -46 -17 -20 3 -24 0 -24 -19 0
-17 -6 -24 -20 -24 -17 0 -20 7 -21 53 0 28 -1 71 -2 95 -1 28 2 42 11 42 6 0
12 6 12 13 0 9 3 8 9 -2 6 -9 21 -12 45 -9z m616 -2 c26 0 50 -27 50 -56 0
-22 -4 -24 -46 -24 -32 0 -44 -4 -41 -12 2 -8 19 -13 41 -12 28 1 36 -2 36
-17 0 -17 -14 -25 -59 -34 -12 -2 -19 0 -16 6 4 5 -1 9 -9 9 -22 0 -38 36 -34
78 3 37 18 62 37 62 6 0 11 6 12 13 0 10 2 10 6 0 2 -7 13 -13 23 -13z m-420
-19 c30 -57 -5 -138 -56 -128 -20 3 -24 0 -24 -19 0 -17 -6 -24 -19 -24 -25 0
-27 5 -23 105 l3 85 54 0 c43 0 56 -4 65 -19z"/>
<path d="M11450 2461 c0 -55 2 -61 21 -61 11 0 18 4 15 9 -3 5 2 8 11 7 22 -1
34 45 19 76 -7 14 -22 24 -39 26 -27 3 -27 3 -27 -57z"/>
<path d="M11850 2410 c0 -5 6 -10 14 -10 8 0 18 5 21 10 3 6 -3 10 -14 10 -12
0 -21 -4 -21 -10z"/>
<path d="M11625 2410 c-3 -5 1 -10 9 -10 8 0 18 5 21 10 3 6 -1 10 -9 10 -8 0
-18 -4 -21 -10z"/>
<path d="M12122 2128 c-17 -17 -15 -43 3 -58 21 -18 37 0 33 36 -3 31 -18 40
-36 22z"/>
<path d="M11206 2131 c-4 -7 -5 -15 -2 -18 9 -9 19 4 14 18 -4 11 -6 11 -12 0z"/>
<path d="M11362 2128 c-17 -17 -15 -43 3 -58 21 -18 37 0 33 36 -3 31 -18 40
-36 22z"/>
<path d="M11975 2130 c-3 -5 3 -10 15 -10 12 0 18 5 15 10 -3 6 -10 10 -15 10
-5 0 -12 -4 -15 -10z"/>
<path d="M11517 2129 c-21 -12 -22 -42 -2 -59 20 -17 35 -4 35 30 0 34 -9 42
-33 29z"/>
<path d="M3560 2030 c0 -91 3 -110 15 -110 11 0 15 12 15 50 0 28 3 50 6 50
20 0 47 -27 60 -61 9 -21 22 -39 30 -39 19 0 17 17 -5 67 -17 36 -17 43 -5 54
8 6 14 24 14 40 0 37 -33 59 -87 59 l-43 0 0 -110z m90 61 c12 -23 -10 -51
-41 -51 -15 0 -19 7 -19 35 0 31 3 35 25 35 14 0 29 -8 35 -19z"/>
<path d="M5718 2080 c-14 -33 -24 -60 -22 -60 7 0 57 111 52 115 -2 2 -16 -23
-30 -55z"/>
<path d="M3745 2060 c-24 -26 -24 -94 1 -121 14 -15 28 -19 63 -17 27 2 46 8
49 17 4 11 -2 13 -27 8 -37 -8 -71 6 -71 28 0 11 13 15 50 15 49 0 50 1 50 29
0 16 -7 37 -16 45 -22 23 -77 20 -99 -4z m73 -12 c20 -20 14 -28 -23 -28 -19
0 -35 4 -35 8 0 12 22 32 35 32 6 0 16 -5 23 -12z"/>
<path d="M3907 2073 c-4 -3 -7 -19 -7 -34 0 -20 9 -32 35 -48 19 -11 35 -24
35 -30 0 -15 -29 -21 -56 -11 -22 9 -25 7 -22 -7 4 -22 72 -30 94 -12 26 22
17 58 -21 81 -40 23 -41 44 -1 41 17 -1 26 3 26 13 0 10 -12 14 -38 14 -21 0
-42 -3 -45 -7z"/>
<path d="M4044 2059 c-11 -13 -19 -35 -19 -59 0 -52 27 -80 75 -80 42 0 67 22
71 60 7 73 -13 100 -70 100 -26 0 -44 -7 -57 -21z m77 -9 c13 -7 19 -21 19
-43 0 -45 -12 -59 -46 -55 -26 3 -29 7 -32 43 -3 29 1 43 14 52 21 16 21 16
45 3z"/>
<path d="M4210 2022 c0 -70 19 -102 60 -102 16 0 32 5 36 11 5 8 9 8 14 -1 17
-28 30 4 30 76 0 67 -2 74 -20 74 -16 0 -19 -8 -22 -62 -3 -60 -4 -63 -29 -66
-30 -4 -39 15 -39 86 0 31 -4 42 -15 42 -12 0 -15 -13 -15 -58z"/>
<path d="M4390 1998 c0 -63 3 -78 15 -78 11 0 15 12 15 46 0 55 14 84 40 84
11 0 20 6 20 14 0 10 -13 14 -45 14 l-45 -1 0 -79z"/>
<path d="M4523 2074 c-7 -3 -17 -21 -23 -40 -15 -46 2 -102 35 -110 35 -9 69
-1 73 17 2 13 -5 16 -35 15 -38 -1 -38 0 -41 40 -4 52 16 73 54 55 22 -10 25
-9 22 6 -2 13 -14 19 -38 20 -19 1 -40 0 -47 -3z"/>
<path d="M4655 2060 c-24 -26 -24 -94 1 -121 14 -15 28 -19 63 -17 27 2 46 8
49 17 4 11 -2 13 -27 8 -37 -8 -71 6 -71 28 0 11 13 15 50 15 49 0 50 1 50 29
0 16 -7 37 -16 45 -22 23 -77 20 -99 -4z m73 -12 c20 -20 14 -28 -23 -28 -19
0 -35 4 -35 8 0 12 22 32 35 32 6 0 16 -5 23 -12z"/>
<path d="M2870 2006 c0 -2 8 -10 18 -17 15 -13 16 -12 3 4 -13 16 -21 21 -21
13z"/>
<path d="M5630 1952 c-30 -32 -66 -66 -80 -76 -24 -17 -24 -17 5 0 39 22 70
50 107 97 42 52 32 46 -32 -21z"/>
<path d="M2932 1934 c37 -39 123 -97 163 -109 11 -4 -6 8 -39 26 -32 19 -82
54 -110 78 -50 44 -51 44 -14 5z"/>
<path d="M5480 1840 c-19 -11 -31 -19 -27 -20 11 0 67 29 67 35 0 7 -1 7 -40
-15z"/>
<path d="M3135 1810 c11 -5 27 -9 35 -9 9 0 8 4 -5 9 -11 5 -27 9 -35 9 -9 0
-8 -4 5 -9z"/>
<path d="M5395 1810 c-13 -5 -14 -9 -5 -9 8 0 24 4 35 9 13 5 14 9 5 9 -8 0
-24 -4 -35 -9z"/>
<path d="M3245 1790 c78 -10 1992 -10 2070 0 33 4 -433 7 -1035 7 -602 0
-1068 -3 -1035 -7z"/>
<path d="M3865 1728 c-76 -211 -75 -208 -57 -208 10 0 22 12 29 30 10 26 16
30 51 30 35 0 41 -3 51 -30 5 -16 17 -30 25 -30 21 0 21 1 -20 118 -29 81 -41
102 -56 102 -10 0 -21 -6 -23 -12z m34 -60 c25 -66 24 -68 -8 -68 -34 0 -37 9
-20 59 13 37 17 38 28 9z"/>
<path d="M4450 1700 c0 -11 -7 -20 -15 -20 -8 0 -15 -4 -15 -10 0 -5 7 -10 15
-10 12 0 15 -13 15 -58 0 -63 11 -82 47 -82 28 0 31 26 3 33 -16 4 -20 14 -20
52 0 38 4 48 20 52 11 3 20 9 20 14 0 5 -9 9 -20 9 -13 0 -20 7 -20 20 0 11
-7 20 -15 20 -8 0 -15 -9 -15 -20z"/>
<path d="M4017 1673 c-4 -3 -7 -19 -7 -34 0 -20 9 -32 35 -48 19 -11 35 -24
35 -30 0 -15 -29 -21 -56 -11 -22 9 -25 7 -22 -7 4 -22 72 -30 94 -12 26 22
17 58 -21 81 -40 23 -41 44 -1 41 17 -1 26 3 26 13 0 10 -12 14 -38 14 -21 0
-42 -3 -45 -7z"/>
<path d="M4147 1673 c-4 -3 -7 -19 -7 -34 0 -20 9 -32 35 -48 19 -11 35 -24
35 -30 0 -15 -29 -21 -56 -11 -22 9 -25 7 -22 -7 4 -22 72 -30 94 -12 26 22
17 58 -21 81 -40 23 -41 44 -1 41 17 -1 26 3 26 13 0 10 -12 14 -38 14 -21 0
-42 -3 -45 -7z"/>
<path d="M4295 1660 c-24 -26 -24 -94 1 -121 14 -15 28 -19 63 -17 27 2 46 8
49 17 4 11 -2 13 -27 8 -37 -8 -71 6 -71 28 0 11 13 15 50 15 49 0 50 1 50 29
0 16 -7 37 -16 45 -22 23 -77 20 -99 -4z m73 -12 c20 -20 14 -28 -23 -28 -19
0 -35 4 -35 8 0 12 22 32 35 32 6 0 16 -5 23 -12z"/>
<path d="M6860 1256 l0 -383 98 -12 c391 -45 653 -37 1072 33 304 51 501 73
753 82 l177 7 0 328 0 329 -1050 0 -1050 0 0 -384z m874 288 c33 -32 7 -94
-40 -94 -18 0 -23 -6 -26 -32 -2 -17 -9 -33 -15 -36 -10 -3 -13 19 -13 87 l0
91 39 0 c23 0 46 -7 55 -16z m125 -33 c9 -6 16 -32 19 -70 l4 -60 -47 2 c-33
1 -51 7 -59 20 -16 25 4 51 43 55 42 4 35 27 -7 27 -18 0 -32 5 -32 12 0 21
53 30 79 14z m166 0 c3 -5 1 -12 -5 -16 -5 -3 -10 -17 -10 -31 0 -17 -8 -27
-26 -34 -14 -6 -30 -8 -35 -4 -5 3 -9 0 -9 -5 0 -6 16 -11 35 -11 44 0 61 -27
39 -58 -10 -15 -26 -22 -49 -22 -36 0 -70 25 -58 43 4 6 6 35 5 64 -1 35 4 58
14 68 17 16 89 21 99 6z m119 -7 c9 -8 16 -26 16 -40 0 -21 -4 -24 -40 -24
-28 0 -40 -4 -40 -14 0 -19 26 -27 57 -20 19 5 24 3 21 -7 -7 -20 -81 -24 -97
-5 -19 22 -16 84 5 107 21 23 57 25 78 3z m186 -299 c0 -33 2 -35 25 -29 36 9
65 -20 65 -63 0 -59 -14 -73 -70 -72 l-50 2 0 92 c0 50 3 95 7 98 15 15 23 5
23 -28z m-847 -63 c15 -43 27 -83 27 -90 0 -23 -28 -12 -34 13 -5 21 -12 25
-41 25 -29 0 -36 -4 -41 -25 -6 -23 -34 -37 -34 -17 0 9 28 93 49 145 20 50
43 34 74 -51z m462 26 c8 -28 15 -59 15 -67 1 -27 16 7 30 67 9 40 16 52 31
52 10 0 19 -5 19 -11 0 -19 33 -124 36 -114 29 108 36 125 50 125 10 0 14 -6
10 -17 -44 -153 -47 -163 -65 -163 -13 0 -22 16 -36 63 l-18 62 -15 -62 c-12
-48 -20 -63 -33 -63 -18 0 -22 10 -65 163 -4 11 0 17 10 17 10 0 21 -19 31
-52z m-302 -5 c22 -21 23 -86 0 -108 -10 -11 -27 -15 -45 -13 -25 4 -28 2 -28
-24 0 -18 -5 -28 -15 -28 -12 0 -15 16 -15 88 0 49 2 91 5 93 11 12 82 6 98
-8z m150 0 c22 -21 23 -86 0 -108 -10 -11 -27 -15 -45 -13 -25 4 -28 2 -28
-24 0 -18 -5 -28 -15 -28 -12 0 -15 16 -15 88 0 49 2 91 5 93 11 12 82 6 98
-8z m457 -3 c11 -11 20 -29 20 -40 0 -17 -7 -20 -45 -20 -25 0 -45 -4 -45 -9
0 -18 30 -33 55 -27 18 5 25 2 25 -9 0 -21 -68 -20 -92 2 -39 35 -10 123 42
123 11 0 29 -9 40 -20z"/>
<path d="M7670 1506 c0 -39 18 -48 41 -20 15 18 2 47 -25 52 -12 3 -16 -4 -16
-32z"/>
<path d="M7804 1429 c-11 -18 13 -34 31 -19 8 7 15 16 15 21 0 13 -38 11 -46
-2z"/>
<path d="M7942 1473 c5 -26 38 -29 38 -4 0 15 -6 21 -21 21 -14 0 -19 -5 -17
-17z"/>
<path d="M7937 1383 c-12 -11 -8 -21 12 -26 24 -6 46 7 37 22 -8 12 -39 15
-49 4z"/>
<path d="M8087 1483 c-14 -13 -6 -23 18 -23 16 0 25 6 25 15 0 15 -31 21 -43
8z"/>
<path d="M8342 1138 c-18 -18 -14 -56 7 -67 25 -14 44 8 39 46 -3 30 -26 41
-46 21z"/>
<path d="M7421 1150 c-14 -42 -15 -40 15 -40 22 0 24 3 18 23 -14 47 -21 51
-33 17z"/>
<path d="M7582 1138 c-18 -18 -14 -56 7 -67 25 -14 44 8 39 46 -3 30 -26 41
-46 21z"/>
<path d="M7732 1138 c-18 -18 -14 -56 7 -67 25 -14 44 8 39 46 -3 30 -26 41
-46 21z"/>
<path d="M8187 1144 c-15 -15 -6 -24 24 -24 20 0 29 4 27 13 -5 14 -40 21 -51
11z"/>
<path d="M10640 1247 l0 -374 113 -12 c404 -44 643 -35 1072 39 280 48 592 77
858 80 l37 0 0 320 0 320 -1040 0 -1040 0 0 -373z m860 321 c0 3 7 -3 15 -14
33 -43 12 -100 -40 -110 -32 -6 -35 -9 -35 -40 0 -24 -5 -34 -15 -34 -12 0
-15 18 -15 103 l0 104 45 -7 c25 -4 45 -4 45 -2z m147 -64 c9 -12 13 -39 11
-74 l-3 -54 -39 -3 c-50 -3 -76 11 -76 41 0 28 15 42 52 51 37 9 25 26 -12 18
-27 -5 -30 -3 -28 18 2 21 7 24 42 23 26 -1 44 -8 53 -20z m163 0 c0 -8 -4
-14 -10 -14 -5 0 -10 -10 -10 -23 0 -13 -5 -28 -11 -34 -8 -8 -5 -17 10 -32
13 -13 18 -27 14 -38 -10 -26 -23 -33 -69 -33 -33 0 -45 5 -58 24 -9 14 -11
26 -5 28 5 2 10 26 10 53 1 28 5 58 10 67 15 28 119 30 119 2z m119 2 c5 -6
11 -22 13 -36 3 -23 -1 -25 -40 -28 -53 -4 -52 -28 2 -26 29 1 36 -2 36 -17 0
-27 -62 -36 -95 -15 -14 9 -25 24 -25 34 0 10 -5 23 -12 30 -8 8 -8 12 -1 12
6 0 13 11 17 23 10 40 79 55 105 23z m181 -296 c0 -28 3 -30 35 -30 40 0 55
-20 55 -74 0 -52 -28 -76 -82 -73 l-43 3 -3 102 c-3 97 -2 102 18 102 16 0 20
-6 20 -30z m-869 -10 c6 -16 15 -30 21 -30 5 0 7 -4 4 -9 -3 -5 3 -34 13 -64
11 -30 17 -58 14 -61 -14 -14 -34 -4 -43 19 -7 19 -17 25 -40 25 -23 0 -33 -6
-40 -25 -11 -29 -40 -34 -40 -6 0 10 11 50 25 87 14 38 28 75 30 82 9 25 46
13 56 -18z m479 -12 c21 -84 25 -86 40 -19 11 54 16 62 34 59 16 -2 24 -16 37
-63 17 -63 17 -63 39 23 8 32 16 42 31 42 24 0 22 -17 -15 -129 -16 -52 -25
-66 -41 -66 -15 0 -23 13 -36 54 l-16 54 -11 -43 c-6 -24 -9 -47 -6 -51 9 -14
-38 -21 -51 -8 -12 14 -42 107 -52 162 -4 22 -2 27 15 27 17 0 24 -10 32 -42z
m-292 -26 c36 -46 -3 -139 -54 -129 -20 3 -24 0 -24 -19 0 -17 -6 -24 -19 -24
-17 0 -20 9 -23 73 -4 99 -1 115 25 119 38 6 82 -4 95 -20z m614 -6 c4 -6 8
-21 8 -33 0 -21 -5 -23 -46 -23 -32 0 -44 -4 -41 -12 2 -8 19 -13 41 -12 29 1
36 -2 36 -17 0 -23 -39 -34 -77 -22 -34 12 -48 47 -39 96 6 30 12 38 39 45 32
9 65 0 79 -22z m-466 16 c5 -4 11 -28 13 -54 3 -56 -25 -93 -65 -85 -20 3 -24
0 -24 -19 0 -17 -6 -24 -19 -24 -23 0 -28 24 -23 123 l4 67 51 0 c29 0 57 -4
63 -8z"/>
<path d="M11440 1505 c0 -22 4 -26 23 -23 14 2 22 10 22 23 0 13 -8 21 -22 23
-19 3 -23 -1 -23 -23z"/>
<path d="M11580 1420 c0 -5 6 -10 14 -10 8 0 18 5 21 10 3 6 -3 10 -14 10 -12
0 -21 -4 -21 -10z"/>
<path d="M11726 1483 c-11 -11 -6 -23 9 -23 8 0 15 4 15 9 0 13 -16 22 -24 14z"/>
<path d="M11720 1370 c0 -5 9 -10 20 -10 11 0 20 5 20 10 0 6 -9 10 -20 10
-11 0 -20 -4 -20 -10z"/>
<path d="M11865 1480 c-3 -5 3 -10 15 -10 12 0 18 5 15 10 -3 6 -10 10 -15 10
-5 0 -12 -4 -15 -10z"/>
<path d="M12123 1135 c-17 -19 -16 -40 2 -55 21 -18 37 0 33 36 -4 32 -18 39
-35 19z"/>
<path d="M11200 1135 c0 -8 5 -15 10 -15 6 0 10 7 10 15 0 8 -4 15 -10 15 -5
0 -10 -7 -10 -15z"/>
<path d="M11362 1138 c-17 -17 -15 -43 3 -58 21 -18 37 0 33 36 -3 31 -18 40
-36 22z"/>
<path d="M11975 1140 c-3 -5 3 -10 15 -10 12 0 18 5 15 10 -3 6 -10 10 -15 10
-5 0 -12 -4 -15 -10z"/>
<path d="M11512 1138 c-17 -17 -15 -43 3 -58 21 -18 37 0 33 36 -3 31 -18 40
-36 22z"/>
<path d="M13171 884 c0 -11 3 -14 6 -6 3 7 2 16 -1 19 -3 4 -6 -2 -5 -13z"/>
<path d="M6456 840 c9 -35 54 -118 73 -133 8 -6 5 2 -7 20 -13 18 -34 56 -48
85 -13 29 -21 42 -18 28z"/>
<path d="M10236 840 c20 -77 121 -209 185 -243 30 -16 31 -16 9 -1 -56 39
-132 130 -166 197 -19 40 -32 61 -28 47z"/>
<path d="M13132 789 c-40 -85 -123 -172 -207 -216 -33 -18 -55 -33 -49 -33 25
0 134 75 182 127 47 50 122 177 111 187 -2 2 -19 -27 -37 -65z"/>
<path d="M8320 726 l0 -93 45 -1 c53 -1 75 17 75 62 0 51 -36 83 -72 64 -16
-7 -18 -4 -18 27 0 24 -4 35 -15 35 -12 0 -15 -17 -15 -94z m88 -29 c2 -27 -1
-39 -13 -43 -35 -14 -61 46 -33 74 23 23 43 9 46 -31z"/>
<path d="M11580 725 c0 -78 3 -95 15 -95 12 0 15 17 15 95 0 78 -3 95 -15 95
-12 0 -15 -17 -15 -95z"/>
<path d="M11940 727 l0 -93 44 -2 c52 -2 68 12 69 64 1 42 -30 76 -63 67 -17
-5 -20 0 -20 26 0 21 -5 31 -15 31 -12 0 -15 -17 -15 -93z m84 -3 c16 -42 -6
-80 -38 -68 -16 6 -23 64 -9 77 12 13 41 7 47 -9z"/>
<path d="M7120 720 c0 -53 4 -90 10 -90 6 0 10 18 10 41 0 33 3 40 18 37 9 -2
26 -20 37 -41 11 -20 26 -37 33 -37 16 0 15 7 -6 50 -16 32 -16 38 -3 62 14
24 14 28 -3 47 -13 14 -31 21 -58 21 l-38 0 0 -90z m70 55 c10 -12 10 -18 0
-30 -20 -24 -50 -19 -50 8 0 39 26 50 50 22z"/>
<path d="M8100 720 c0 -73 3 -90 15 -90 12 0 15 17 15 90 0 73 -3 90 -15 90
-12 0 -15 -17 -15 -90z"/>
<path d="M11050 720 l0 -90 50 0 c28 0 50 5 50 10 0 6 -16 10 -35 10 l-35 0 0
80 c0 64 -3 80 -15 80 -12 0 -15 -17 -15 -90z"/>
<path d="M11720 720 c0 -53 4 -90 10 -90 6 0 10 37 10 90 0 53 -4 90 -10 90
-6 0 -10 -37 -10 -90z"/>
<path d="M7800 781 c0 -11 -6 -22 -12 -24 -10 -4 -10 -7 -1 -14 6 -5 13 -31
15 -58 3 -46 5 -50 31 -53 15 -2 27 1 27 7 0 6 -7 11 -15 11 -11 0 -15 12 -15
45 0 33 4 45 15 45 8 0 15 5 15 10 0 6 -6 10 -14 10 -7 0 -16 9 -19 20 -7 26
-27 26 -27 1z"/>
<path d="M7300 762 c-40 -12 -55 -86 -24 -117 19 -18 85 -17 91 2 3 8 -6 10
-30 6 -29 -4 -37 -1 -46 16 -11 20 -9 21 34 21 41 0 45 2 45 24 0 33 -37 59
-70 48z m44 -37 c4 -12 -3 -15 -29 -15 -26 0 -33 3 -29 15 4 8 16 15 29 15 13
0 25 -7 29 -15z"/>
<path d="M7455 760 c-11 -4 -26 -5 -32 -3 -10 4 -13 -12 -13 -62 0 -80 22 -87
30 -9 4 41 8 49 25 49 17 0 20 -8 23 -53 4 -68 25 -65 32 4 4 41 8 49 25 49
17 0 20 -8 23 -52 2 -29 7 -53 13 -53 16 0 22 28 15 75 -8 52 -33 73 -66 55
-13 -7 -27 -7 -37 -2 -10 5 -27 6 -38 2z"/>
<path d="M7669 756 c-55 -27 -45 -117 13 -124 57 -7 92 43 66 95 -16 33 -48
45 -79 29z m57 -41 c8 -30 0 -53 -21 -61 -22 -9 -45 14 -45 46 0 33 7 40 36
40 17 0 25 -7 30 -25z"/>
<path d="M7919 756 c-34 -17 -47 -61 -28 -94 12 -22 23 -28 57 -30 31 -2 42 1
42 11 0 10 -8 13 -25 9 -25 -4 -55 12 -55 29 0 5 18 9 40 9 45 0 58 16 41 48
-13 25 -43 33 -72 18z m49 -33 c2 -9 -7 -13 -27 -13 -30 0 -39 9 -24 24 11 10
46 3 51 -11z"/>
<path d="M8220 760 c-6 -4 -21 -5 -31 -3 -17 5 -19 -1 -19 -61 0 -51 3 -66 14
-66 11 0 16 14 18 46 2 32 9 51 21 58 24 15 37 -6 37 -61 0 -24 5 -43 10 -43
7 0 10 23 8 61 -3 52 -6 63 -24 69 -11 5 -27 5 -34 0z"/>
<path d="M8510 763 c-37 -13 -52 -71 -30 -114 14 -25 71 -26 93 -1 20 22 22
72 5 94 -15 19 -47 28 -68 21z m45 -68 c0 -34 -3 -40 -22 -43 -16 -2 -26 4
-34 21 -15 33 4 69 34 65 18 -2 22 -10 22 -43z"/>
<path d="M11199 756 c-55 -27 -45 -117 13 -124 57 -7 92 43 66 95 -16 33 -48
45 -79 29z m57 -41 c8 -30 0 -53 -21 -61 -22 -9 -45 14 -45 46 0 33 7 40 36
40 17 0 25 -7 30 -25z"/>
<path d="M11349 756 c-19 -9 -25 -21 -27 -54 -2 -24 2 -50 9 -58 16 -19 63
-18 80 2 12 15 10 16 -19 10 -28 -7 -33 -4 -44 19 -16 35 0 60 38 60 16 1 28
5 27 10 -3 17 -40 23 -64 11z"/>
<path d="M11463 760 c-36 -14 -27 -29 12 -23 46 7 48 -19 3 -32 -28 -8 -33
-15 -33 -40 0 -29 2 -30 48 -31 l47 -2 0 52 c0 28 -4 56 -8 62 -11 17 -44 24
-69 14z m47 -85 c0 -21 -28 -31 -43 -16 -9 9 -8 14 3 21 22 14 40 12 40 -5z"/>
<path d="M11835 760 c-11 -4 -26 -5 -32 -3 -10 4 -13 -12 -13 -62 0 -80 22
-87 30 -9 4 41 8 49 25 49 17 0 20 -8 23 -52 2 -39 7 -53 18 -53 12 0 14 12
12 56 -3 63 -25 89 -63 74z"/>
<path d="M12119 756 c-55 -27 -45 -117 13 -124 57 -7 92 43 66 95 -16 33 -48
45 -79 29z m57 -41 c8 -30 0 -53 -21 -61 -22 -9 -45 14 -45 46 0 33 7 40 36
40 17 0 25 -7 30 -25z"/>
<path d="M8629 727 c19 -32 19 -33 1 -57 -11 -14 -20 -28 -20 -32 0 -16 22 -7
40 14 l17 22 14 -22 c12 -20 46 -33 37 -14 -2 4 -10 20 -18 35 -12 25 -12 32
4 58 15 25 15 29 2 29 -8 0 -20 -9 -27 -21 l-11 -21 -14 21 c-9 12 -22 21 -30
21 -13 0 -12 -6 5 -33z"/>
<path d="M12230 755 c0 -3 7 -17 16 -30 15 -23 15 -27 -5 -60 -16 -27 -17 -35
-6 -35 8 0 21 10 29 22 l16 22 16 -22 c8 -12 22 -22 30 -22 13 0 12 6 -6 35
-20 32 -20 36 -6 57 20 28 20 38 2 38 -8 0 -18 -10 -22 -22 l-7 -22 -17 22
c-17 20 -40 30 -40 17z"/>
<path d="M9265 667 c-33 -35 -87 -77 -120 -95 -33 -17 -55 -32 -49 -32 14 0
124 66 152 93 24 22 87 97 80 97 -1 -1 -30 -29 -63 -63z"/>
<path d="M6572 654 c37 -39 123 -97 163 -109 11 -4 -6 8 -39 26 -32 19 -82 54
-110 78 -50 44 -51 44 -14 5z"/>
<path d="M10460 575 c0 -7 61 -37 66 -33 2 3 -12 12 -31 21 -19 9 -35 15 -35
12z"/>
<path d="M6800 522 c41 -15 131 -17 1120 -17 989 0 1079 2 1120 17 38 15 40
16 10 10 -46 -9 -2214 -9 -2260 0 -30 6 -28 5 10 -10z"/>
<path d="M12815 530 c-13 -5 -14 -9 -5 -9 8 0 24 4 35 9 13 5 14 9 5 9 -8 0
-24 -4 -35 -9z"/>
<path d="M10578 523 c7 -3 16 -2 19 1 4 3 -2 6 -13 5 -11 0 -14 -3 -6 -6z"/>
<path d="M10665 510 c78 -10 1992 -10 2070 0 33 4 -433 7 -1035 7 -602 0
-1068 -3 -1035 -7z"/>
<path d="M7655 458 c-2 -7 -16 -45 -30 -84 -29 -83 -29 -84 -11 -84 8 0 17 11
20 25 5 20 13 25 40 25 25 0 35 -6 44 -25 12 -26 32 -34 31 -12 0 6 -13 46
-28 87 -26 72 -54 101 -66 68z m39 -75 c6 -20 4 -23 -18 -23 -30 0 -29 -2 -15
40 12 34 19 30 33 -17z"/>
<path d="M11403 380 c-23 -64 -28 -90 -19 -90 7 0 18 11 24 25 9 19 19 25 42
25 23 0 33 -6 42 -25 12 -26 44 -36 35 -11 -3 8 -18 49 -33 90 -36 103 -50
101 -91 -14z m65 10 c11 -29 10 -30 -18 -30 -28 0 -28 1 -18 35 13 39 22 38
36 -5z"/>
<path d="M8160 441 c0 -11 -6 -22 -12 -24 -10 -4 -10 -7 -1 -14 6 -5 13 -31
15 -58 3 -46 5 -50 31 -53 15 -2 27 1 27 7 0 6 -7 11 -15 11 -11 0 -15 12 -15
45 0 33 4 45 15 45 8 0 15 5 15 10 0 6 -6 10 -14 10 -7 0 -16 9 -19 20 -7 26
-27 26 -27 1z"/>
<path d="M11933 443 c-4 -10 -11 -22 -17 -26 -8 -6 -7 -10 2 -14 6 -2 12 -17
12 -33 0 -45 17 -80 39 -80 27 0 35 17 11 23 -16 4 -20 14 -20 45 0 32 4 41
23 47 l22 8 -22 4 c-15 3 -23 12 -23 24 0 24 -18 25 -27 2z"/>
<path d="M7798 423 c-39 -10 -30 -65 13 -78 10 -4 19 -13 19 -22 0 -12 -7 -14
-31 -9 -22 4 -29 2 -27 -7 6 -17 56 -21 74 -6 23 19 16 47 -16 64 -37 19 -39
35 -5 35 28 0 34 15 9 24 -9 3 -16 5 -17 5 -1 -1 -10 -3 -19 -6z"/>
<path d="M7912 419 c-31 -12 -27 -44 8 -69 36 -26 30 -44 -12 -36 -21 4 -28 2
-25 -7 2 -7 21 -12 43 -12 37 0 39 2 39 30 0 23 -7 33 -27 43 -37 17 -35 32 2
32 17 0 30 4 30 9 0 13 -33 19 -58 10z"/>
<path d="M8039 416 c-34 -17 -47 -61 -28 -94 12 -22 23 -28 57 -30 31 -2 42 1
42 11 0 10 -8 13 -25 9 -25 -4 -55 12 -55 29 0 5 18 9 40 9 45 0 58 16 41 48
-13 25 -43 33 -72 18z m49 -33 c2 -9 -7 -13 -27 -13 -30 0 -39 9 -24 24 11 10
46 3 51 -11z"/>
<path d="M11572 419 c-31 -12 -27 -44 8 -69 36 -26 30 -44 -12 -36 -21 4 -28
2 -25 -7 2 -7 21 -12 43 -12 37 0 39 2 39 30 0 23 -7 33 -27 43 -37 17 -35 32
2 32 17 0 30 4 30 9 0 13 -33 19 -58 10z"/>
<path d="M11688 423 c-39 -10 -30 -65 13 -78 10 -4 19 -13 19 -22 0 -12 -7
-14 -31 -9 -22 4 -29 2 -27 -7 6 -17 56 -21 74 -6 23 19 16 47 -16 64 -37 19
-39 35 -5 35 28 0 34 15 9 24 -9 3 -16 5 -17 5 -1 -1 -10 -3 -19 -6z"/>
<path d="M11820 422 c-40 -12 -55 -86 -24 -117 19 -18 85 -17 91 2 3 8 -6 10
-30 6 -29 -4 -37 -1 -46 16 -11 20 -9 21 34 21 41 0 45 2 45 24 0 33 -37 59
-70 48z m44 -37 c4 -12 -3 -15 -29 -15 -26 0 -33 3 -29 15 4 8 16 15 29 15 13
0 25 -7 29 -15z"/>
</g>
</svg>
