<?xml version="1.0" standalone="no"?>
<!DOCTYPE svg PUBLIC "-//W3C//DTD SVG 20010904//EN"
 "http://www.w3.org/TR/2001/REC-SVG-20010904/DTD/svg10.dtd">
<svg version="1.0" xmlns="http://www.w3.org/2000/svg"
 width="64.000000pt" height="64.000000pt" viewBox="0 0 64.000000 64.000000"
 preserveAspectRatio="xMidYMid meet">

<g transform="translate(0.000000,64.000000) scale(0.100000,-0.100000)"
fill="#000000" stroke="none">
<path d="M441 534 c0 -11 3 -14 6 -6 3 7 2 16 -1 19 -3 4 -6 -2 -5 -13z"/>
<path d="M112 501 l-23 -41 26 12 c22 10 28 9 36 -3 12 -19 10 -1 -5 39 l-12
33 -22 -40z m28 -1 c0 -5 -4 -10 -10 -10 -5 0 -10 5 -10 10 0 6 5 10 10 10 6
0 10 -4 10 -10z"/>
<path d="M511 517 c-10 -26 -41 -55 -41 -39 0 6 5 14 10 17 15 9 12 25 -4 25
-17 0 -31 -34 -21 -50 4 -6 14 -10 23 -8 10 2 22 -3 28 -10 9 -12 13 -12 27 3
21 20 22 45 3 45 -9 0 -12 7 -9 20 7 28 -5 25 -16 -3z m21 -49 c-7 -7 -12 -8
-12 -2 0 6 3 14 7 17 3 4 9 5 12 2 2 -3 -1 -11 -7 -17z"/>
<path d="M356 500 c9 -46 20 -58 29 -29 7 22 8 22 22 3 12 -16 15 -17 23 -4 5
8 9 22 9 30 -1 11 -3 10 -6 -2 -5 -22 -23 -24 -23 -3 0 22 -15 18 -28 -7 -10
-21 -11 -22 -11 -3 -1 11 -6 27 -11 35 -7 11 -8 5 -4 -20z"/>
<path d="M206 512 c-3 -5 -1 -12 5 -14 7 -2 5 -9 -5 -17 -14 -12 -16 -12 -11
2 4 8 2 18 -3 21 -6 3 -13 -12 -17 -34 -6 -38 -9 -40 -42 -40 -32 0 -34 -2
-29 -27 3 -16 10 -57 16 -93 18 -100 23 -110 67 -110 21 0 33 -4 27 -8 -6 -4
-11 -28 -13 -54 -1 -39 1 -48 14 -48 13 0 16 9 15 37 -3 67 -4 66 46 60 41 -4
219 14 228 24 5 5 36 180 36 202 0 15 -14 17 -147 17 l-148 0 28 25 c35 33 36
57 2 52 -13 -1 -27 -6 -31 -10 -4 -4 -12 1 -19 10 -8 10 -14 12 -19 5z m79
-31 c-3 -6 -11 -11 -17 -11 -6 0 -6 6 2 15 14 17 26 13 15 -4z m-35 -10 c0
-26 -15 -41 -41 -41 -33 0 -31 21 4 38 28 14 37 14 37 3z m220 -101 c0 -19 -7
-20 -110 -20 -67 0 -110 -4 -110 -10 0 -6 42 -10 105 -10 l105 0 -6 -42 c-4
-24 -8 -44 -9 -46 -10 -12 -121 -18 -177 -10 -62 10 -68 12 -68 34 0 20 5 24
29 24 17 0 31 -6 35 -16 5 -14 16 -16 58 -11 97 12 79 28 -41 35 l-89 5 -6 30
c-12 59 -18 57 139 57 138 0 145 -1 145 -20z"/>
<path d="M120 171 c0 -31 21 -81 35 -81 14 0 35 50 35 81 0 31 -18 21 -26 -13
l-7 -33 -9 33 c-9 34 -28 44 -28 13z"/>
<path d="M244 146 c-10 -26 1 -51 24 -54 23 -4 31 13 10 21 -8 3 -5 6 6 6 12
1 16 6 12 17 -3 9 -6 18 -6 20 0 11 -41 2 -46 -10z"/>
<path d="M306 133 c10 -40 11 -41 46 -39 26 1 33 7 40 31 8 33 2 47 -12 25 -7
-10 -10 -11 -10 -2 0 19 -28 14 -33 -5 -4 -17 -5 -17 -6 0 0 9 -8 17 -16 17
-12 0 -14 -7 -9 -27z"/>
<path d="M409 144 c-16 -20 -1 -48 30 -52 25 -4 29 15 4 21 -14 4 -12 5 5 6
13 1 22 -5 22 -14 0 -8 7 -15 15 -15 8 0 15 9 15 19 0 11 5 23 10 26 18 11 10
25 -15 25 -17 0 -25 -6 -25 -17 -1 -17 -1 -17 -11 0 -12 21 -32 22 -50 1z"/>
</g>
</svg>
