<?xml version="1.0" encoding="UTF-8" standalone="no"?>
<svg
   xmlns:dc="http://purl.org/dc/elements/1.1/"
   xmlns:cc="http://creativecommons.org/ns#"
   xmlns:rdf="http://www.w3.org/1999/02/22-rdf-syntax-ns#"
   xmlns:svg="http://www.w3.org/2000/svg"
   xmlns="http://www.w3.org/2000/svg"
   viewBox="0 0 1280 720"
   height="720"
   width="1280"
   xml:space="preserve"
   id="svg2"
   version="1.1"><metadata
     id="metadata8"><rdf:RDF><cc:Work
         rdf:about=""><dc:format>image/svg+xml</dc:format><dc:type
           rdf:resource="http://purl.org/dc/dcmitype/StillImage" /></cc:Work></rdf:RDF></metadata><defs
     id="defs6"><clipPath
       id="clipPath18"
       clipPathUnits="userSpaceOnUse"><path
         style="clip-rule:evenodd"
         id="path16"
         d="M 0,1.2207e-4 H 960 V 540.00012 H 0 Z" /></clipPath><clipPath
       id="clipPath32"
       clipPathUnits="userSpaceOnUse"><path
         style="clip-rule:evenodd"
         id="path30"
         d="M 1.4305e-5,0 H 960.00001 V 540 H 1.4305e-5 Z" /></clipPath><clipPath
       id="clipPath48"
       clipPathUnits="userSpaceOnUse"><path
         style="clip-rule:evenodd"
         id="path46"
         d="M 1.4305e-5,0 H 960.00001 V 540 H 1.4305e-5 Z" /></clipPath><clipPath
       id="clipPath66"
       clipPathUnits="userSpaceOnUse"><path
         style="clip-rule:evenodd"
         id="path64"
         d="M 1.4305e-5,0 H 960.00001 V 540 H 1.4305e-5 Z" /></clipPath><clipPath
       id="clipPath78"
       clipPathUnits="userSpaceOnUse"><path
         style="clip-rule:evenodd"
         id="path76"
         d="M 1.4305e-5,0 H 960.00001 V 540 H 1.4305e-5 Z" /></clipPath><clipPath
       id="clipPath90"
       clipPathUnits="userSpaceOnUse"><path
         style="clip-rule:evenodd"
         id="path88"
         d="M 1.4305e-5,0 H 960.00001 V 540 H 1.4305e-5 Z" /></clipPath><clipPath
       id="clipPath108"
       clipPathUnits="userSpaceOnUse"><path
         style="clip-rule:evenodd"
         id="path106"
         d="M 1.4305e-5,0 H 960.00001 V 540 H 1.4305e-5 Z" /></clipPath><clipPath
       id="clipPath120"
       clipPathUnits="userSpaceOnUse"><path
         style="clip-rule:evenodd"
         id="path118"
         d="M 1.4305e-5,0 H 960.00001 V 540 H 1.4305e-5 Z" /></clipPath><clipPath
       id="clipPath136"
       clipPathUnits="userSpaceOnUse"><path
         style="clip-rule:evenodd"
         id="path134"
         d="M 1.4305e-5,0 H 960.00001 V 540 H 1.4305e-5 Z" /></clipPath><clipPath
       id="clipPath156"
       clipPathUnits="userSpaceOnUse"><path
         style="clip-rule:evenodd"
         id="path154"
         d="M 1.4305e-5,0 H 960.00001 V 540 H 1.4305e-5 Z" /></clipPath><clipPath
       id="clipPath180"
       clipPathUnits="userSpaceOnUse"><path
         style="clip-rule:evenodd"
         id="path178"
         d="M 1.4305e-5,0 H 960.00001 V 540 H 1.4305e-5 Z" /></clipPath><clipPath
       id="clipPath200"
       clipPathUnits="userSpaceOnUse"><path
         style="clip-rule:evenodd"
         id="path198"
         d="M 1.4305e-5,0 H 960.00001 V 540 H 1.4305e-5 Z" /></clipPath></defs><g
     transform="matrix(1.3333333,0,0,-1.3333333,0,720)"
     id="g10"><g
       id="g12"><g
         clip-path="url(#clipPath18)"
         id="g14"><path
           id="path20"
           style="fill:#ffffff;fill-opacity:1;fill-rule:evenodd;stroke:none"
           d="M 0,6.1035e-5 H 960 V 540.00006 H 0 Z" /></g></g><path
       id="path22"
       style="fill:#92d050;fill-opacity:1;fill-rule:evenodd;stroke:none"
       d="m 636.36,344.81 c 53.21,-6.25 53.21,6.26 106.4,6.26 v 32.52 h -106.4 z m 8.77,38.78 v 4.22 H 750.8 v -32.73 c -4.01,0 -8.04,-0.22 -8.04,-0.22 v 28.73 z m 8.24,4.22 v 4.11 H 759.96 V 359.3 c -4.58,0 -9.16,-0.17 -9.16,-0.17 v 28.68 z" /><path
       id="path24"
       style="fill:none;stroke:#787878;stroke-width:0.95999998;stroke-linecap:butt;stroke-linejoin:miter;stroke-miterlimit:10;stroke-dasharray:none;stroke-opacity:1"
       d="m 636.36,383.59 h 106.4 v -32.52 c -53.19,0 -53.19,-12.51 -106.4,-6.26 z m 8.77,0 v 4.22 H 750.8 v -32.73 c -4.01,0 -8.04,-0.22 -8.04,-0.22 m -89.39,32.95 v 4.11 H 759.96 V 359.3 c -4.58,0 -9.16,-0.17 -9.16,-0.17" /><g
       id="g26"><g
         clip-path="url(#clipPath32)"
         id="g28"><text
           id="text36"
           style="font-variant:normal;font-weight:normal;font-size:18px;font-family:Calibri;-inkscape-font-specification:Calibri;writing-mode:lr-tb;fill:#ffffff;fill-opacity:1;fill-rule:nonzero;stroke:none"
           transform="matrix(1,0,0,-1,673.78,358.13)"><tspan
             id="tspan34"
             y="0"
             x="0 5.7420001 12.816 22.302">Json</tspan></text>
</g></g><path
       id="path38"
       style="fill:#92d050;fill-opacity:1;fill-rule:evenodd;stroke:none"
       d="m 637.8,291.29 c 53.21,-6.25 53.21,6.26 106.4,6.26 v 32.52 H 637.8 Z m 8.77,38.78 v 4.22 h 105.67 v -32.73 c -4.01,0 -8.04,-0.22 -8.04,-0.22 v 28.73 z m 8.24,4.22 v 4.11 H 761.4 v -32.62 c -4.58,0 -9.16,-0.17 -9.16,-0.17 v 28.68 z" /><path
       id="path40"
       style="fill:none;stroke:#787878;stroke-width:0.95999998;stroke-linecap:butt;stroke-linejoin:miter;stroke-miterlimit:10;stroke-dasharray:none;stroke-opacity:1"
       d="m 637.8,330.07 h 106.4 v -32.52 c -53.19,0 -53.19,-12.51 -106.4,-6.26 z m 8.77,0 v 4.22 h 105.67 v -32.73 c -4.01,0 -8.04,-0.22 -8.04,-0.22 m -89.39,32.95 v 4.11 H 761.4 v -32.62 c -4.58,0 -9.16,-0.17 -9.16,-0.17" /><g
       id="g42"><g
         clip-path="url(#clipPath48)"
         id="g44"><text
           id="text52"
           style="font-variant:normal;font-weight:normal;font-size:18px;font-family:Calibri;-inkscape-font-specification:Calibri;writing-mode:lr-tb;fill:#ffffff;fill-opacity:1;fill-rule:nonzero;stroke:none"
           transform="matrix(1,0,0,-1,673.3,304.66)"><tspan
             id="tspan50"
             y="0"
             x="0 11.16 17.190001 31.572001">Html</tspan></text>
</g></g><path
       id="path54"
       style="fill:#000000;fill-opacity:1;fill-rule:evenodd;stroke:none"
       d="m 465.6,300 h 133.08 v 79.8 H 465.6 Z" /><path
       id="path56"
       style="fill:none;stroke:#000000;stroke-width:0.95999998;stroke-linecap:butt;stroke-linejoin:miter;stroke-miterlimit:10;stroke-dasharray:none;stroke-opacity:1"
       d="M 482.23,379.8 V 300 m 99.81,79.8 V 300" /><path
       id="path58"
       style="fill:none;stroke:#000000;stroke-width:0.95999998;stroke-linecap:butt;stroke-linejoin:miter;stroke-miterlimit:10;stroke-dasharray:none;stroke-opacity:1"
       d="m 465.6,300 h 133.08 v 79.8 H 465.6 Z" /><g
       id="g60"><g
         clip-path="url(#clipPath66)"
         id="g62"><text
           id="text70"
           style="font-variant:normal;font-weight:normal;font-size:18px;font-family:Calibri;-inkscape-font-specification:Calibri;writing-mode:lr-tb;fill:#ffffff;fill-opacity:1;fill-rule:nonzero;stroke:none"
           transform="matrix(1,0,0,-1,493.06,355.42)"><tspan
             id="tspan68"
             y="0"
             x="0 8.2620001 14.04 22.554001 28.584 32.633999 40.194 44.369999 55.439999 63.936001 69.695999 78.318001">Static Data </tspan></text>
</g></g><g
       id="g72"><g
         clip-path="url(#clipPath78)"
         id="g74"><text
           id="text82"
           style="font-variant:normal;font-weight:normal;font-size:18px;font-family:Calibri;-inkscape-font-specification:Calibri;writing-mode:lr-tb;fill:#ffffff;fill-opacity:1;fill-rule:nonzero;stroke:none"
           transform="matrix(1,0,0,-1,489.82,333.82)"><tspan
             id="tspan80"
             y="0"
             x="0 15.354 24.318001 33.821999 37.889999 46.152 55.169998 61.506001 69.552002 78.515999">Web Server</tspan></text>
</g></g><g
       id="g84"><g
         clip-path="url(#clipPath90)"
         id="g86"><text
           id="text94"
           style="font-variant:normal;font-weight:normal;font-size:18px;font-family:Calibri;-inkscape-font-specification:Calibri;writing-mode:lr-tb;fill:#ffffff;fill-opacity:1;fill-rule:nonzero;stroke:none"
           transform="matrix(1,0,0,-1,493.78,312.22)"><tspan
             id="tspan92"
             y="0"
             x="0 10.422 17.496 24.534 33.551998 47.933998 57.383999 61.523998 70.487999">Assembler</tspan></text>
</g></g><path
       id="path96"
       style="fill:#4472c4;fill-opacity:1;fill-rule:nonzero;stroke:none"
       d="M 637.77,312.61 H 617 v 27.17 l 1.26,-1.26 h -13.22 v 2.52 h 14.48 v -27.17 l -1.26,1.26 h 19.51 z M 606.3,336 l -7.56,3.78 7.56,3.78 z" /><path
       id="path98"
       style="fill:#92d050;fill-opacity:1;fill-rule:evenodd;stroke:none"
       d="m 314.16,370.2 h 123.72 v -48.31 c -61.86,0 -61.86,-18.41 -123.72,-7.95 z" /><path
       id="path100"
       style="fill:none;stroke:#787878;stroke-width:0.95999998;stroke-linecap:butt;stroke-linejoin:miter;stroke-miterlimit:10;stroke-dasharray:none;stroke-opacity:1"
       d="m 314.16,370.2 h 123.72 v -48.31 c -61.86,0 -61.86,-18.41 -123.72,-7.95 z" /><g
       id="g102"><g
         clip-path="url(#clipPath108)"
         id="g104"><text
           id="text112"
           style="font-variant:normal;font-weight:normal;font-size:18px;font-family:Calibri;-inkscape-font-specification:Calibri;writing-mode:lr-tb;fill:#ffffff;fill-opacity:1;fill-rule:nonzero;stroke:none"
           transform="matrix(1,0,0,-1,335.93,350.78)"><tspan
             id="tspan110"
             y="0"
             x="0 10.422 17.496 24.534 33.551998 47.933998 57.383999 61.523998 70.487999">Assembled</tspan></text>
</g></g><g
       id="g114"><g
         clip-path="url(#clipPath120)"
         id="g116"><text
           id="text124"
           style="font-variant:normal;font-weight:normal;font-size:18px;font-family:Calibri;-inkscape-font-specification:Calibri;writing-mode:lr-tb;fill:#ffffff;fill-opacity:1;fill-rule:nonzero;stroke:none"
           transform="matrix(1,0,0,-1,358.13,329.18)"><tspan
             id="tspan122"
             y="0"
             x="0 11.16 17.190001 31.572001">Html</tspan></text>
</g></g><path
       id="path126"
       style="fill:#4472c4;fill-opacity:1;fill-rule:evenodd;stroke:none"
       d="m 163.44,339.96 19.2,26.16 h 76.8 c 10.6,0 19.2,-11.71 19.2,-26.16 0,-14.45 -8.6,-26.16 -19.2,-26.16 h -76.8 z" /><path
       id="path128"
       style="fill:none;stroke:#2f528f;stroke-width:0.95999998;stroke-linecap:butt;stroke-linejoin:miter;stroke-miterlimit:10;stroke-dasharray:none;stroke-opacity:1"
       d="m 163.44,339.96 19.2,26.16 h 76.8 c 10.6,0 19.2,-11.71 19.2,-26.16 0,-14.45 -8.6,-26.16 -19.2,-26.16 h -76.8 z" /><g
       id="g130"><g
         clip-path="url(#clipPath136)"
         id="g132"><text
           id="text140"
           style="font-variant:normal;font-weight:normal;font-size:18px;font-family:Calibri;-inkscape-font-specification:Calibri;writing-mode:lr-tb;fill:#ffffff;fill-opacity:1;fill-rule:nonzero;stroke:none"
           transform="matrix(1,0,0,-1,190.92,333.94)"><tspan
             id="tspan138"
             y="0"
             x="0 9.7919998 15.84 25.200001 37.925999 44.964001 53.981998">Browser</tspan></text>
</g></g><path
       id="path142"
       style="fill:#4472c4;fill-opacity:1;fill-rule:nonzero;stroke:none"
       d="M 314.23,341.28 H 295.2 v -1.33 l 1.26,1.26 H 285 v -2.52 h 12.72 v 1.33 l -1.26,-1.26 h 17.77 z m -27.97,2.45 -7.56,-3.78 7.56,-3.78 z" /><path
       id="path144"
       style="fill:#000000;fill-opacity:1;fill-rule:evenodd;stroke:none"
       d="M 313.08,383.88 H 436.8 V 419.4 H 313.08 Z" /><path
       id="path146"
       style="fill:none;stroke:#000000;stroke-width:0.95999998;stroke-linecap:butt;stroke-linejoin:miter;stroke-miterlimit:10;stroke-dasharray:none;stroke-opacity:1"
       d="m 328.54,419.4 v -35.52 m 92.79,35.52 v -35.52" /><path
       id="path148"
       style="fill:none;stroke:#000000;stroke-width:0.95999998;stroke-linecap:butt;stroke-linejoin:miter;stroke-miterlimit:10;stroke-dasharray:none;stroke-opacity:1"
       d="M 313.08,383.88 H 436.8 V 419.4 H 313.08 Z" /><g
       id="g150"><g
         clip-path="url(#clipPath156)"
         id="g152"><text
           id="text160"
           style="font-variant:normal;font-weight:normal;font-size:18px;font-family:Calibri;-inkscape-font-specification:Calibri;writing-mode:lr-tb;fill:#ffffff;fill-opacity:1;fill-rule:nonzero;stroke:none"
           transform="matrix(1,0,0,-1,362.78,395.62)"><tspan
             id="tspan158"
             y="0"
             x="0 10.422 19.728001">API</tspan></text>
</g></g><path
       id="path162"
       style="fill:#4472c4;fill-opacity:1;fill-rule:nonzero;stroke:none"
       d="m 636.33,368.64 h -20.05 v -28.8 l 1.26,1.26 h -12.5 v -2.52 h 13.76 v 28.8 l -1.26,-1.26 h 18.79 z m -30.03,-25.02 -7.56,-3.78 7.56,-3.78 z" /><path
       id="path164"
       style="fill:#4472c4;fill-opacity:1;fill-rule:nonzero;stroke:none"
       d="m 465.76,338.56 h -15.17 v 1.46 l 1.26,-1.26 h -7.61 v 2.52 h 8.87 v -1.46 l -1.26,1.26 h 13.91 z m -20.26,-2.32 -7.56,3.78 7.56,3.78 z" /><path
       id="path166"
       style="fill:#4472c4;fill-opacity:1;fill-rule:nonzero;stroke:none"
       d="m 443.16,402.84 h 9.4 v -1.38 l -1.26,1.26 h 8.14 v -2.52 h -9.4 v 1.38 l 1.26,-1.26 h -8.14 z m 1.26,-5.04 -7.56,3.78 7.56,3.78 z m 13.76,7.44 7.56,-3.78 -7.56,-3.78 z" /><path
       id="path168"
       style="fill:#4472c4;fill-opacity:1;fill-rule:evenodd;stroke:none"
       d="m 163.44,386.4 h 115.2 v 29.52 h -115.2 z" /><path
       id="path170"
       style="fill:none;stroke:#2f528f;stroke-width:0.95999998;stroke-linecap:butt;stroke-linejoin:miter;stroke-miterlimit:10;stroke-dasharray:none;stroke-opacity:1"
       d="M 177.84,415.92 V 386.4 m 86.4,29.52 V 386.4" /><path
       id="path172"
       style="fill:none;stroke:#2f528f;stroke-width:0.95999998;stroke-linecap:butt;stroke-linejoin:miter;stroke-miterlimit:10;stroke-dasharray:none;stroke-opacity:1"
       d="m 163.44,386.4 h 115.2 v 29.52 h -115.2 z" /><g
       id="g174"><g
         clip-path="url(#clipPath180)"
         id="g176"><text
           id="text184"
           style="font-variant:normal;font-weight:normal;font-size:18px;font-family:Calibri;-inkscape-font-specification:Calibri;writing-mode:lr-tb;fill:#ffffff;fill-opacity:1;fill-rule:nonzero;stroke:none"
           transform="matrix(1,0,0,-1,191.86,395.14)"><tspan
             id="tspan182"
             y="0"
             x="0 9.5939999 19.08 28.530001 35.622002 45.108002 49.175999">Console</tspan></text>
</g></g><path
       id="path186"
       style="fill:#4472c4;fill-opacity:1;fill-rule:nonzero;stroke:none"
       d="m 285,399.84 h 12.19 v 1.74 l -1.26,-1.26 h 10.93 v 2.52 h -12.19 v -1.74 l 1.26,1.26 H 285 Z m 1.26,5.04 -7.56,-3.78 7.56,-3.78 z m 19.34,-7.08 7.56,3.78 -7.56,3.78 z" /><path
       id="path188"
       style="fill:#000000;fill-opacity:1;fill-rule:evenodd;stroke:none"
       d="M 465.6,389.16 H 598.68 V 414 H 465.6 Z" /><path
       id="path190"
       style="fill:none;stroke:#000000;stroke-width:0.95999998;stroke-linecap:butt;stroke-linejoin:miter;stroke-miterlimit:10;stroke-dasharray:none;stroke-opacity:1"
       d="M 482.23,414 V 389.16 M 582.04,414 v -24.84" /><path
       id="path192"
       style="fill:none;stroke:#000000;stroke-width:0.95999998;stroke-linecap:butt;stroke-linejoin:miter;stroke-miterlimit:10;stroke-dasharray:none;stroke-opacity:1"
       d="M 465.6,389.16 H 598.68 V 414 H 465.6 Z" /><g
       id="g194"><g
         clip-path="url(#clipPath200)"
         id="g196"><text
           id="text204"
           style="font-variant:normal;font-weight:normal;font-size:18px;font-family:Calibri;-inkscape-font-specification:Calibri;writing-mode:lr-tb;fill:#ffffff;fill-opacity:1;fill-rule:nonzero;stroke:none"
           transform="matrix(1,0,0,-1,501.1,395.5)"><tspan
             id="tspan202"
             y="0"
             x="0 9.3599997 18.323999 25.200001 31.23 38.178001 54">Rest/WS</tspan></text>
</g></g><path
       id="path206"
       style="fill:#4472c4;fill-opacity:1;fill-rule:nonzero;stroke:none"
       d="m 605.04,402.72 h 102.91 v -4.59 h -2.52 v 3.33 l 1.26,-1.26 H 605.04 Z m 1.26,-5.04 -7.56,3.78 7.56,3.78 z m 104.17,1.71 -3.78,-7.56 -3.78,7.56 z" /></g></svg>