<?xml version="1.0" standalone="no"?>
<!DOCTYPE svg PUBLIC "-//W3C//DTD SVG 20010904//EN"
 "http://www.w3.org/TR/2001/REC-SVG-20010904/DTD/svg10.dtd">
<svg version="1.0" xmlns="http://www.w3.org/2000/svg"
 width="192.000000pt" height="192.000000pt" viewBox="0 0 192.000000 192.000000"
 preserveAspectRatio="xMidYMid meet">

<g transform="translate(0.000000,192.000000) scale(0.100000,-0.100000)"
fill="#000000" stroke="none">
<path d="M1316 1625 c-3 -9 -6 -29 -6 -45 0 -43 -40 -164 -51 -153 -5 5 -17
33 -27 63 -10 30 -24 56 -30 58 -7 2 -19 -12 -27 -32 -47 -113 -46 -112 -55
-91 -4 11 -13 53 -20 93 -13 70 -31 104 -44 83 -6 -10 28 -184 45 -228 14 -37
28 -27 60 42 17 36 34 65 38 65 3 0 14 -23 24 -51 19 -52 43 -72 57 -48 18 28
58 166 62 208 3 44 -14 68 -26 36z"/>
<path d="M370 1570 c-38 -75 -93 -162 -114 -179 -9 -7 -13 -17 -10 -22 11 -18
41 -8 61 19 13 17 37 32 68 40 54 14 51 15 73 -30 17 -32 39 -38 35 -8 -1 8
-16 55 -32 105 -17 49 -31 97 -31 107 0 38 -21 25 -50 -32z m42 -70 c2 -18 -3
-26 -24 -34 -39 -14 -44 -3 -18 39 24 38 37 36 42 -5z"/>
<path d="M1557 1613 c-2 -5 -12 -32 -22 -61 -21 -66 -81 -132 -118 -132 -36 0
-34 9 8 50 37 36 45 70 20 90 -32 27 -95 -48 -95 -115 0 -14 9 -34 21 -46 27
-27 72 -20 112 19 l29 27 -6 -46 c-5 -36 -3 -48 11 -62 17 -14 21 -15 51 0 48
23 76 68 76 122 1 39 -2 46 -20 49 -11 2 -28 -6 -39 -18 -30 -34 -34 -23 -14
43 10 34 17 68 14 75 -5 13 -21 16 -28 5z m-127 -91 c0 -5 -9 -17 -21 -28 -21
-19 -21 -19 -8 9 12 26 29 37 29 19z m186 -79 c-7 -28 -63 -89 -73 -79 -9 8 8
45 34 76 31 38 47 39 39 3z"/>
<path d="M624 1540 c-12 -5 -29 -18 -37 -30 l-14 -21 -6 22 c-3 12 -12 19 -19
17 -9 -3 -16 -38 -21 -112 -5 -60 -6 -110 -3 -113 3 -3 12 -3 21 0 11 5 15 21
15 60 0 58 24 106 68 135 21 14 22 13 22 -11 0 -25 -15 -42 -52 -62 -12 -5
-21 -14 -22 -20 -2 -23 49 -14 111 20 l66 36 -7 -40 c-20 -131 -20 -121 3
-121 17 0 21 6 21 30 0 21 5 30 16 30 50 0 114 74 114 132 0 63 -37 71 -85 18
l-20 -22 -5 28 c-7 36 -28 42 -36 9 -6 -22 -60 -75 -77 -75 -4 0 -2 12 4 26 7
20 6 32 -6 50 -17 26 -20 27 -51 14z m246 -49 c0 -25 -42 -85 -63 -89 -26 -5
-21 20 13 66 32 45 50 53 50 23z"/>
<path d="M298 1285 c-2 -3 23 -155 57 -337 l61 -333 274 -37 275 -36 273 37
c150 21 275 41 279 44 3 4 30 141 59 304 29 164 56 313 59 331 l6 32 -669 0
c-368 0 -671 -2 -674 -5z m1102 -139 c0 -13 -3 -38 -7 -56 l-6 -33 -322 7
c-177 3 -324 4 -327 1 -3 -3 -2 -20 1 -38 l7 -32 312 4 312 4 0 -24 c0 -38
-39 -242 -48 -251 -10 -10 -84 -23 -227 -41 -105 -14 -118 -13 -294 12 -207
29 -189 19 -205 119 l-6 42 89 0 89 0 7 -29 c3 -16 12 -32 20 -34 18 -8 157
-22 175 -19 8 1 51 8 95 15 l79 12 9 38 c5 21 7 40 5 43 -3 2 -134 7 -291 11
l-285 6 -21 111 c-12 61 -21 119 -21 128 0 19 -7 19 648 26 l212 2 0 -24z"/>
<path d="M616 555 c-19 -20 -20 -26 -3 -49 27 -38 95 2 71 42 -15 23 -48 27
-68 7z"/>
<path d="M348 555 c-3 -4 12 -65 33 -138 22 -72 39 -133 39 -134 0 -2 20 -3
45 -3 l44 0 26 88 c15 48 33 107 40 131 18 53 14 61 -30 61 l-34 0 -17 -77
c-24 -111 -29 -116 -44 -37 -20 106 -24 114 -63 114 -19 0 -36 -2 -39 -5z"/>
<path d="M610 380 l0 -100 35 0 35 0 0 100 0 100 -35 0 -35 0 0 -100z"/>
<path d="M745 456 c-79 -79 -14 -206 91 -181 29 8 40 16 42 33 3 20 -1 22 -37
22 -22 0 -43 5 -46 10 -4 6 13 10 44 10 l51 0 0 40 c0 81 -90 121 -145 66z
m79 -41 c4 -10 -1 -15 -14 -15 -20 0 -26 11 -13 23 10 11 20 8 27 -8z"/>
<path d="M910 458 c0 -13 4 -39 9 -58 6 -19 15 -54 21 -77 10 -41 12 -43 50
-43 39 0 40 1 46 40 9 56 21 58 29 4 l6 -45 42 3 41 3 22 90 c13 50 19 94 15
98 -5 5 -19 7 -32 5 -21 -3 -25 -11 -34 -58 l-9 -55 -11 55 c-10 54 -11 55
-44 55 -36 0 -38 -2 -57 -80 -6 -28 -7 -27 -18 25 -10 52 -13 55 -43 58 -29 3
-33 0 -33 -20z"/>
<path d="M1257 469 c-42 -25 -58 -98 -33 -148 32 -61 156 -70 156 -11 0 17 -7
20 -39 20 -61 0 -59 18 1 22 l53 3 -3 40 c-5 68 -77 108 -135 74z m67 -54 c4
-10 -1 -15 -14 -15 -20 0 -26 11 -13 23 10 11 20 8 27 -8z"/>
<path d="M1420 379 l0 -100 38 3 37 3 5 60 c4 53 8 60 30 65 18 4 26 13 28 33
4 31 -20 46 -42 28 -10 -8 -16 -9 -21 -1 -3 5 -22 10 -41 10 l-34 0 0 -101z"/>
</g>
</svg>
